<svg width="818" height="34" viewBox="0 0 818 34" fill="none" xmlns="http://www.w3.org/2000/svg">
<path d="M3.63574 2.44043C3.61361 3.68001 3.59147 4.88086 3.56934 6.04297C3.55827 6.54102 3.5472 7.05013 3.53613 7.57031C3.53613 8.09049 3.5306 8.60514 3.51953 9.11426C3.51953 9.6123 3.514 10.0938 3.50293 10.5586C3.50293 11.0124 3.50293 11.4163 3.50293 11.7705C3.50293 12.512 3.50846 13.4085 3.51953 14.46C3.5306 15.5114 3.54167 16.5905 3.55273 17.6973C3.57487 18.804 3.60254 19.8665 3.63574 20.8848C3.66895 21.903 3.70768 22.7497 3.75195 23.4248C3.9069 23.4469 4.11165 23.4746 4.36621 23.5078C4.63184 23.5299 4.90853 23.5521 5.19629 23.5742C5.48405 23.5853 5.76628 23.5964 6.04297 23.6074C6.31966 23.6185 6.55208 23.624 6.74023 23.624C7.51497 23.624 8.30632 23.5742 9.11426 23.4746C9.93327 23.3639 10.7191 23.1647 11.4717 22.877C12.2354 22.5892 12.9492 22.1963 13.6133 21.6982C14.2884 21.1891 14.875 20.5361 15.373 19.7393C15.8822 18.9424 16.2806 17.985 16.5684 16.8672C16.8561 15.7383 17 14.4102 17 12.8828C17 11.1895 16.7952 9.68424 16.3857 8.36719C15.9762 7.03906 15.373 5.92122 14.5762 5.01367C13.7904 4.10612 12.8109 3.41992 11.6377 2.95508C10.4756 2.47917 9.13639 2.24121 7.62012 2.24121C7.32129 2.24121 6.98372 2.25228 6.60742 2.27441C6.23112 2.28548 5.85482 2.30208 5.47852 2.32422C5.11328 2.33529 4.76465 2.35742 4.43262 2.39062C4.11165 2.41276 3.84603 2.42936 3.63574 2.44043ZM0 0.946289C0.254557 0.957357 0.492513 0.968424 0.713867 0.979492C0.902018 0.99056 1.0957 1.00163 1.29492 1.0127C1.49414 1.0127 1.65462 1.0127 1.77637 1.0127C1.98665 1.0127 2.33529 1.00163 2.82227 0.979492C3.32031 0.957357 3.88477 0.935221 4.51562 0.913086C5.14648 0.890951 5.79948 0.868815 6.47461 0.84668C7.16081 0.824544 7.80273 0.813477 8.40039 0.813477C10.0052 0.813477 11.5326 1.0127 12.9824 1.41113C14.4323 1.80957 15.7051 2.46257 16.8008 3.37012C17.8965 4.27767 18.7653 5.46745 19.4072 6.93945C20.0492 8.41146 20.3701 10.221 20.3701 12.3682C20.3701 13.9066 20.1986 15.29 19.8555 16.5186C19.5234 17.7471 19.0531 18.8317 18.4443 19.7725C17.8356 20.7132 17.1051 21.5212 16.2529 22.1963C15.4118 22.8604 14.4766 23.4082 13.4473 23.8398C12.429 24.2715 11.3389 24.5869 10.1768 24.7861C9.01465 24.9854 7.8138 25.085 6.57422 25.085C6.13151 25.085 5.59473 25.0684 4.96387 25.0352C4.34408 25.013 3.71875 24.9854 3.08789 24.9521C2.45703 24.9189 1.85938 24.8857 1.29492 24.8525C0.741536 24.8304 0.309896 24.8193 0 24.8193V24.7529C0.0664062 24.5205 0.127279 24.2327 0.182617 23.8896C0.249023 23.5465 0.304362 23.1204 0.348633 22.6113C0.392904 22.1022 0.426107 21.499 0.448242 20.8018C0.470378 20.0934 0.481445 19.2689 0.481445 18.3281V7.52051C0.481445 6.57975 0.470378 5.75521 0.448242 5.04688C0.426107 4.32747 0.392904 3.71322 0.348633 3.2041C0.304362 2.68392 0.249023 2.24674 0.182617 1.89258C0.127279 1.53841 0.0664062 1.24512 0 1.0127V0.946289ZM28.9737 14.3105C28.9737 13.3698 28.9571 12.5508 28.9239 11.8535C28.9018 11.1452 28.8686 10.5365 28.8243 10.0273C28.7911 9.51823 28.7413 9.09212 28.6749 8.74902C28.6195 8.40592 28.5587 8.11816 28.4923 7.88574V7.81934H32.3272V7.88574C32.2608 8.11816 32.1999 8.40592 32.1446 8.74902C32.0893 9.09212 32.0395 9.51823 31.9952 10.0273C31.9509 10.5365 31.9177 11.1452 31.8956 11.8535C31.8735 12.5508 31.8624 13.3698 31.8624 14.3105V18.3281C31.8624 19.2689 31.8735 20.0934 31.8956 20.8018C31.9177 21.499 31.9509 22.1022 31.9952 22.6113C32.0395 23.1204 32.0893 23.5465 32.1446 23.8896C32.1999 24.2327 32.2608 24.5205 32.3272 24.7529V24.8193H28.4923V24.7529C28.5587 24.5205 28.6195 24.2327 28.6749 23.8896C28.7413 23.5465 28.7911 23.1204 28.8243 22.6113C28.8686 22.1022 28.9018 21.499 28.9239 20.8018C28.9571 20.0934 28.9737 19.2689 28.9737 18.3281V14.3105ZM28.6251 2.78906C28.6251 2.54557 28.6693 2.31868 28.7579 2.1084C28.8575 1.88704 28.9848 1.69889 29.1397 1.54395C29.2947 1.37793 29.4773 1.25065 29.6876 1.16211C29.9089 1.0625 30.1469 1.0127 30.4014 1.0127C30.656 1.0127 30.8884 1.0625 31.0987 1.16211C31.3201 1.25065 31.5082 1.37793 31.6632 1.54395C31.8292 1.69889 31.9565 1.88704 32.045 2.1084C32.1446 2.31868 32.1944 2.54557 32.1944 2.78906C32.1944 3.29818 32.0229 3.72428 31.6798 4.06738C31.3367 4.41048 30.9106 4.58203 30.4014 4.58203C30.1469 4.58203 29.9089 4.53776 29.6876 4.44922C29.4773 4.34961 29.2947 4.22233 29.1397 4.06738C28.9848 3.90137 28.8575 3.71322 28.7579 3.50293C28.6693 3.28158 28.6251 3.04362 28.6251 2.78906ZM48.9992 11.1562L48.7668 11.1895C48.6893 10.9349 48.562 10.6637 48.3849 10.376C48.2189 10.0882 47.9976 9.82259 47.7209 9.5791C47.4552 9.33561 47.1287 9.13639 46.7414 8.98145C46.3651 8.81543 45.9279 8.73242 45.4298 8.73242C45.0867 8.73242 44.7602 8.78223 44.4504 8.88184C44.1515 8.98145 43.8859 9.13086 43.6535 9.33008C43.4321 9.51823 43.255 9.75618 43.1222 10.0439C42.9894 10.3317 42.923 10.6693 42.923 11.0566C42.923 11.599 43.089 12.1191 43.4211 12.6172C43.7642 13.1042 44.1903 13.5911 44.6994 14.0781C45.2085 14.554 45.7563 15.0355 46.3429 15.5225C46.9406 16.0094 47.494 16.5186 48.0031 17.0498C48.5122 17.5811 48.9328 18.151 49.2648 18.7598C49.6079 19.3574 49.7795 20.0049 49.7795 20.7021C49.7795 21.2666 49.6798 21.82 49.4806 22.3623C49.2814 22.8936 48.9715 23.3695 48.5509 23.79C48.1414 24.2106 47.6102 24.5537 46.9572 24.8193C46.3153 25.0739 45.5461 25.2012 44.6496 25.2012C44.1183 25.2012 43.6203 25.1514 43.1554 25.0518C42.7017 24.9521 42.2811 24.8304 41.8937 24.6865C41.5174 24.5316 41.1743 24.3656 40.8644 24.1885C40.5656 24.0003 40.3 23.8232 40.0675 23.6572L40.2336 20.5029H40.4992C40.6099 21.0231 40.7759 21.499 40.9972 21.9307C41.2186 22.3623 41.4897 22.7331 41.8107 23.043C42.1427 23.3418 42.519 23.5798 42.9396 23.7568C43.3602 23.9229 43.8195 24.0059 44.3175 24.0059C45.1365 24.0059 45.784 23.779 46.2599 23.3252C46.7469 22.8714 46.9904 22.2793 46.9904 21.5488C46.9904 20.9622 46.8244 20.4255 46.4923 19.9385C46.1714 19.4404 45.7619 18.9645 45.2638 18.5107C44.7658 18.057 44.229 17.6032 43.6535 17.1494C43.089 16.6956 42.5578 16.2142 42.0597 15.7051C41.5617 15.1849 41.1466 14.6204 40.8146 14.0117C40.4936 13.3919 40.3332 12.6891 40.3332 11.9033C40.3332 11.2614 40.4494 10.6748 40.6818 10.1436C40.9253 9.60124 41.2573 9.14193 41.6779 8.76562C42.1095 8.37826 42.6186 8.07943 43.2052 7.86914C43.7918 7.65885 44.4338 7.55371 45.131 7.55371C46.0496 7.55371 46.8133 7.65332 47.422 7.85254C48.0418 8.04069 48.5122 8.22331 48.8332 8.40039L48.9992 11.1562ZM71.7639 21.2832L70.5354 24.2383C70.2366 24.3711 69.8935 24.4928 69.5061 24.6035C69.1187 24.7142 68.7148 24.8083 68.2942 24.8857C67.8847 24.9632 67.4696 25.0186 67.0491 25.0518C66.6285 25.096 66.2301 25.1182 65.8538 25.1182C64.5146 25.1182 63.275 24.9245 62.135 24.5371C61.0061 24.1387 60.0266 23.5632 59.1965 22.8105C58.3775 22.0579 57.7356 21.1338 57.2707 20.0381C56.8059 18.9424 56.5735 17.6917 56.5735 16.2861C56.5735 15.0355 56.8114 13.8789 57.2873 12.8164C57.7743 11.7428 58.4439 10.8132 59.2961 10.0273C60.1594 9.24154 61.1721 8.62728 62.3342 8.18457C63.4963 7.74186 64.758 7.52051 66.1194 7.52051C66.7392 7.52051 67.4032 7.57585 68.1116 7.68652C68.8199 7.78613 69.4508 7.91895 70.0041 8.08496L71.1829 10.9072L70.9836 11.0234C70.7069 10.6803 70.3749 10.3704 69.9875 10.0938C69.6112 9.80599 69.1907 9.5625 68.7258 9.36328C68.272 9.16406 67.7906 9.00911 67.2815 8.89844C66.7724 8.78776 66.2522 8.73242 65.7209 8.73242C64.8577 8.73242 64.0719 8.88737 63.3635 9.19727C62.6552 9.49609 62.0465 9.93327 61.5373 10.5088C61.0282 11.0843 60.6298 11.7926 60.342 12.6338C60.0653 13.4639 59.927 14.4102 59.927 15.4727C59.927 16.668 60.0598 17.7803 60.3254 18.8096C60.6021 19.8389 61.0061 20.7354 61.5373 21.499C62.0797 22.2516 62.7548 22.8438 63.5627 23.2754C64.3817 23.696 65.3391 23.9062 66.4348 23.9062C66.9439 23.9062 67.4475 23.8454 67.9455 23.7236C68.4547 23.5908 68.9306 23.4082 69.3733 23.1758C69.8271 22.9323 70.2421 22.6445 70.6184 22.3125C70.9947 21.9805 71.3101 21.6042 71.5647 21.1836L71.7639 21.2832ZM78.1595 16.2861C78.1595 15.0355 78.3919 13.8789 78.8568 12.8164C79.3216 11.7428 79.958 10.8132 80.7659 10.0273C81.5849 9.24154 82.5478 8.62728 83.6546 8.18457C84.7614 7.74186 85.9512 7.52051 87.2239 7.52051C88.4746 7.52051 89.6478 7.73079 90.7435 8.15137C91.8502 8.56087 92.8131 9.14746 93.6321 9.91113C94.4512 10.6748 95.0931 11.6045 95.5579 12.7002C96.0338 13.7959 96.2718 15.0244 96.2718 16.3857C96.2718 17.5257 96.0726 18.6214 95.6741 19.6729C95.2757 20.7243 94.6891 21.654 93.9144 22.4619C93.1396 23.2699 92.1878 23.9173 91.0589 24.4043C89.9411 24.8802 88.6517 25.1182 87.1907 25.1182C85.9512 25.1182 84.7835 24.9134 83.6878 24.5039C82.5921 24.0944 81.6348 23.5078 80.8157 22.7441C79.9967 21.9805 79.3493 21.0563 78.8734 19.9717C78.3974 18.876 78.1595 17.6475 78.1595 16.2861ZM87.5726 23.9062C88.3584 23.9062 89.0778 23.7513 89.7308 23.4414C90.3948 23.1315 90.9648 22.6833 91.4407 22.0967C91.9167 21.5101 92.2874 20.7962 92.553 19.9551C92.8187 19.1139 92.9515 18.1621 92.9515 17.0996C92.9515 15.9043 92.8242 14.7975 92.5696 13.7793C92.3151 12.75 91.9333 11.8646 91.4241 11.123C90.9261 10.3704 90.2952 9.78385 89.5316 9.36328C88.7679 8.94271 87.8769 8.73242 86.8587 8.73242C86.0729 8.73242 85.3535 8.88737 84.7005 9.19727C84.0475 9.49609 83.4775 9.93327 82.9905 10.5088C82.5146 11.0843 82.1439 11.7926 81.8782 12.6338C81.6126 13.4639 81.4798 14.4102 81.4798 15.4727C81.4798 16.668 81.6071 17.7803 81.8616 18.8096C82.1273 19.8389 82.5146 20.7354 83.0238 21.499C83.5329 22.2516 84.1637 22.8438 84.9163 23.2754C85.68 23.696 86.5654 23.9062 87.5726 23.9062ZM105.988 7.81934V7.88574C105.966 7.94108 105.949 8.02409 105.938 8.13477C105.927 8.24544 105.921 8.34505 105.921 8.43359C105.921 8.77669 105.971 9.15853 106.071 9.5791C106.17 9.98861 106.347 10.5033 106.602 11.123L110.57 20.5693L114.587 11.2559C114.753 10.8464 114.93 10.3981 115.119 9.91113C115.307 9.42415 115.401 8.93164 115.401 8.43359C115.401 8.28971 115.39 8.1735 115.368 8.08496C115.345 7.98535 115.323 7.91895 115.301 7.88574V7.81934H118.289V7.88574C118.09 8.09603 117.836 8.47233 117.526 9.01465C117.227 9.5459 116.906 10.2155 116.563 11.0234L110.437 25.0518H109.457L103.78 11.8369C103.58 11.3499 103.365 10.8851 103.132 10.4424C102.911 9.98861 102.695 9.58464 102.485 9.23047C102.286 8.8763 102.108 8.58301 101.954 8.35059C101.799 8.1071 101.693 7.95215 101.638 7.88574V7.81934H105.988ZM132.488 25.1182C131.259 25.1182 130.108 24.9245 129.035 24.5371C127.961 24.1497 127.026 23.5853 126.229 22.8438C125.432 22.0911 124.801 21.167 124.336 20.0713C123.883 18.9645 123.656 17.7028 123.656 16.2861C123.656 15.0355 123.866 13.8789 124.287 12.8164C124.707 11.7428 125.288 10.8132 126.03 10.0273C126.771 9.24154 127.635 8.62728 128.62 8.18457C129.616 7.74186 130.689 7.52051 131.84 7.52051C132.98 7.52051 134.037 7.71973 135.011 8.11816C135.985 8.50553 136.826 9.07552 137.535 9.82812C138.254 10.5697 138.819 11.4938 139.228 12.6006C139.649 13.6963 139.875 14.9469 139.909 16.3525C138.658 16.3304 137.407 16.3138 136.157 16.3027C134.906 16.2917 133.606 16.2861 132.255 16.2861C131.292 16.2861 130.352 16.2917 129.433 16.3027C128.526 16.3138 127.707 16.3304 126.976 16.3525C127.042 17.5036 127.22 18.5439 127.507 19.4736C127.806 20.4033 128.21 21.2002 128.719 21.8643C129.239 22.5173 129.865 23.0208 130.595 23.375C131.337 23.7292 132.172 23.9062 133.102 23.9062C133.744 23.9062 134.347 23.8343 134.912 23.6904C135.487 23.5355 136.007 23.3252 136.472 23.0596C136.937 22.7939 137.352 22.484 137.717 22.1299C138.083 21.7646 138.392 21.3717 138.647 20.9512L138.846 21.0508L137.618 24.0059C137.02 24.3158 136.306 24.5814 135.476 24.8027C134.646 25.013 133.65 25.1182 132.488 25.1182ZM130.28 14.9912C131.387 14.9912 132.493 14.9912 133.6 14.9912C134.718 14.9801 135.731 14.958 136.638 14.9248C136.539 13.9619 136.35 13.0986 136.074 12.335C135.797 11.5713 135.443 10.9238 135.011 10.3926C134.58 9.86133 134.07 9.45182 133.484 9.16406C132.897 8.8763 132.25 8.73242 131.541 8.73242C130.9 8.73242 130.307 8.8763 129.765 9.16406C129.234 9.44076 128.769 9.84473 128.371 10.376C127.972 10.9072 127.651 11.5602 127.408 12.335C127.164 13.0986 127.02 13.973 126.976 14.958C127.474 14.9801 128 14.9912 128.553 14.9912C129.107 14.9912 129.682 14.9912 130.28 14.9912ZM147.898 14.3105C147.898 13.3698 147.881 12.5508 147.848 11.8535C147.826 11.1452 147.793 10.5365 147.749 10.0273C147.715 9.51823 147.666 9.09212 147.599 8.74902C147.544 8.40592 147.483 8.11816 147.417 7.88574V7.81934H151.252V7.88574C151.163 8.1403 151.086 8.4502 151.019 8.81543C150.964 9.18066 150.919 9.65104 150.886 10.2266C151.296 9.88346 151.722 9.5459 152.165 9.21387C152.607 8.88184 153.061 8.58854 153.526 8.33398C153.991 8.07943 154.461 7.87467 154.937 7.71973C155.424 7.56478 155.911 7.4873 156.398 7.4873C156.697 7.4873 156.957 7.50391 157.178 7.53711C157.4 7.55924 157.599 7.59798 157.776 7.65332C157.953 7.69759 158.114 7.75293 158.257 7.81934C158.401 7.87467 158.54 7.93001 158.672 7.98535L157.859 11.1562L157.577 11.0898C157.444 10.6029 157.195 10.2155 156.83 9.92773C156.464 9.62891 155.966 9.47949 155.336 9.47949C154.992 9.47949 154.633 9.54036 154.256 9.66211C153.88 9.78385 153.498 9.9554 153.111 10.1768C152.724 10.387 152.336 10.6361 151.949 10.9238C151.561 11.2005 151.185 11.4938 150.82 11.8037C150.798 12.1247 150.787 12.4733 150.787 12.8496C150.787 13.2259 150.787 13.6243 150.787 14.0449V18.3281C150.787 19.2689 150.798 20.0934 150.82 20.8018C150.842 21.499 150.875 22.1022 150.919 22.6113C150.964 23.1204 151.014 23.5465 151.069 23.8896C151.124 24.2327 151.185 24.5205 151.252 24.7529V24.8193H147.417V24.7529C147.483 24.5205 147.544 24.2327 147.599 23.8896C147.666 23.5465 147.715 23.1204 147.749 22.6113C147.793 22.1022 147.826 21.499 147.848 20.8018C147.881 20.0934 147.898 19.2689 147.898 18.3281V14.3105ZM178.884 16.2861C178.884 15.0355 179.117 13.8789 179.582 12.8164C180.047 11.7428 180.683 10.8132 181.491 10.0273C182.31 9.24154 183.273 8.62728 184.38 8.18457C185.486 7.74186 186.676 7.52051 187.949 7.52051C189.2 7.52051 190.373 7.73079 191.468 8.15137C192.575 8.56087 193.538 9.14746 194.357 9.91113C195.176 10.6748 195.818 11.6045 196.283 12.7002C196.759 13.7959 196.997 15.0244 196.997 16.3857C196.997 17.5257 196.798 18.6214 196.399 19.6729C196.001 20.7243 195.414 21.654 194.639 22.4619C193.865 23.2699 192.913 23.9173 191.784 24.4043C190.666 24.8802 189.377 25.1182 187.916 25.1182C186.676 25.1182 185.509 24.9134 184.413 24.5039C183.317 24.0944 182.36 23.5078 181.541 22.7441C180.722 21.9805 180.074 21.0563 179.598 19.9717C179.122 18.876 178.884 17.6475 178.884 16.2861ZM188.298 23.9062C189.083 23.9062 189.803 23.7513 190.456 23.4414C191.12 23.1315 191.69 22.6833 192.166 22.0967C192.642 21.5101 193.012 20.7962 193.278 19.9551C193.544 19.1139 193.676 18.1621 193.676 17.0996C193.676 15.9043 193.549 14.7975 193.295 13.7793C193.04 12.75 192.658 11.8646 192.149 11.123C191.651 10.3704 191.02 9.78385 190.257 9.36328C189.493 8.94271 188.602 8.73242 187.584 8.73242C186.798 8.73242 186.079 8.88737 185.426 9.19727C184.773 9.49609 184.203 9.93327 183.716 10.5088C183.24 11.0843 182.869 11.7926 182.603 12.6338C182.338 13.4639 182.205 14.4102 182.205 15.4727C182.205 16.668 182.332 17.7803 182.587 18.8096C182.852 19.8389 183.24 20.7354 183.749 21.499C184.258 22.2516 184.889 22.8438 185.641 23.2754C186.405 23.696 187.29 23.9062 188.298 23.9062ZM207.941 19.0088C207.941 20.4697 208.229 21.5433 208.804 22.2295C209.391 22.9157 210.177 23.2588 211.162 23.2588C211.516 23.2588 211.915 23.1868 212.357 23.043C212.8 22.888 213.254 22.6888 213.719 22.4453C214.194 22.1908 214.665 21.8975 215.13 21.5654C215.606 21.2334 216.043 20.8792 216.441 20.5029C216.463 20.182 216.474 19.8444 216.474 19.4902C216.474 19.125 216.474 18.7376 216.474 18.3281V14.3105C216.474 13.3698 216.458 12.5508 216.425 11.8535C216.402 11.1452 216.369 10.5365 216.325 10.0273C216.292 9.51823 216.242 9.09212 216.176 8.74902C216.12 8.40592 216.059 8.11816 215.993 7.88574V7.81934H219.828V7.88574C219.762 8.11816 219.701 8.40592 219.645 8.74902C219.59 9.09212 219.54 9.51823 219.496 10.0273C219.452 10.5365 219.418 11.1452 219.396 11.8535C219.374 12.5508 219.363 13.3698 219.363 14.3105V18.3281C219.363 19.2689 219.374 20.0934 219.396 20.8018C219.418 21.499 219.452 22.1022 219.496 22.6113C219.54 23.1204 219.59 23.5465 219.645 23.8896C219.701 24.2327 219.762 24.5205 219.828 24.7529V24.8193H215.993V24.7529C216.059 24.4762 216.126 24.1221 216.192 23.6904C216.27 23.2588 216.325 22.6943 216.358 21.9971C215.904 22.3844 215.412 22.7663 214.881 23.1426C214.36 23.5189 213.813 23.8564 213.237 24.1553C212.673 24.4541 212.097 24.6921 211.511 24.8691C210.935 25.0573 210.365 25.1514 209.801 25.1514C208.937 25.1514 208.201 25.002 207.593 24.7031C206.995 24.4043 206.502 24.0114 206.115 23.5244C205.739 23.0374 205.462 22.484 205.285 21.8643C205.119 21.2445 205.036 20.6081 205.036 19.9551V14.3105C205.036 13.3698 205.025 12.5508 205.003 11.8535C204.981 11.1452 204.947 10.5365 204.903 10.0273C204.859 9.51823 204.809 9.09212 204.754 8.74902C204.698 8.40592 204.637 8.11816 204.571 7.88574V7.81934H208.406V7.88574C208.34 8.11816 208.279 8.40592 208.223 8.74902C208.168 9.09212 208.118 9.51823 208.074 10.0273C208.03 10.5365 207.997 11.1452 207.974 11.8535C207.952 12.5508 207.941 13.3698 207.941 14.3105V19.0088ZM228.896 14.3105C228.896 13.3698 228.88 12.5508 228.847 11.8535C228.824 11.1452 228.791 10.5365 228.747 10.0273C228.714 9.51823 228.664 9.09212 228.598 8.74902C228.542 8.40592 228.481 8.11816 228.415 7.88574V7.81934H232.25V7.88574C232.161 8.1403 232.084 8.4502 232.017 8.81543C231.962 9.18066 231.918 9.65104 231.885 10.2266C232.294 9.88346 232.72 9.5459 233.163 9.21387C233.606 8.88184 234.059 8.58854 234.524 8.33398C234.989 8.07943 235.46 7.87467 235.935 7.71973C236.422 7.56478 236.909 7.4873 237.396 7.4873C237.695 7.4873 237.955 7.50391 238.177 7.53711C238.398 7.55924 238.597 7.59798 238.774 7.65332C238.951 7.69759 239.112 7.75293 239.256 7.81934C239.4 7.87467 239.538 7.93001 239.671 7.98535L238.857 11.1562L238.575 11.0898C238.442 10.6029 238.193 10.2155 237.828 9.92773C237.463 9.62891 236.965 9.47949 236.334 9.47949C235.991 9.47949 235.631 9.54036 235.255 9.66211C234.878 9.78385 234.497 9.9554 234.109 10.1768C233.722 10.387 233.335 10.6361 232.947 10.9238C232.56 11.2005 232.183 11.4938 231.818 11.8037C231.796 12.1247 231.785 12.4733 231.785 12.8496C231.785 13.2259 231.785 13.6243 231.785 14.0449V18.3281C231.785 19.2689 231.796 20.0934 231.818 20.8018C231.84 21.499 231.874 22.1022 231.918 22.6113C231.962 23.1204 232.012 23.5465 232.067 23.8896C232.123 24.2327 232.183 24.5205 232.25 24.7529V24.8193H228.415V24.7529C228.481 24.5205 228.542 24.2327 228.598 23.8896C228.664 23.5465 228.714 23.1204 228.747 22.6113C228.791 22.1022 228.824 21.499 228.847 20.8018C228.88 20.0934 228.896 19.2689 228.896 18.3281V14.3105ZM272.351 13.6299C272.351 12.8994 272.273 12.2686 272.118 11.7373C271.974 11.2061 271.758 10.7689 271.471 10.4258C271.194 10.0716 270.856 9.81152 270.458 9.64551C270.06 9.46842 269.617 9.37988 269.13 9.37988C268.798 9.37988 268.427 9.44629 268.018 9.5791C267.608 9.71191 267.182 9.89453 266.739 10.127C266.308 10.3483 265.87 10.6084 265.428 10.9072C264.996 11.2061 264.587 11.527 264.199 11.8701C264.177 12.2243 264.166 12.6061 264.166 13.0156C264.166 13.4141 264.166 13.8457 264.166 14.3105V18.3281C264.166 19.2689 264.177 20.0934 264.199 20.8018C264.221 21.499 264.255 22.1022 264.299 22.6113C264.343 23.1204 264.393 23.5465 264.448 23.8896C264.504 24.2327 264.564 24.5205 264.631 24.7529V24.8193H260.796V24.7529C260.862 24.5205 260.923 24.2327 260.979 23.8896C261.045 23.5465 261.095 23.1204 261.128 22.6113C261.172 22.1022 261.205 21.499 261.228 20.8018C261.261 20.0934 261.277 19.2689 261.277 18.3281V14.3105C261.277 13.3698 261.261 12.5508 261.228 11.8535C261.205 11.1452 261.172 10.5365 261.128 10.0273C261.095 9.51823 261.045 9.09212 260.979 8.74902C260.923 8.40592 260.862 8.11816 260.796 7.88574V7.81934H264.631V7.88574C264.542 8.1403 264.47 8.4668 264.415 8.86523C264.371 9.2526 264.321 9.74512 264.266 10.3428C264.708 9.98861 265.184 9.63997 265.693 9.29688C266.203 8.95378 266.723 8.64941 267.254 8.38379C267.796 8.11816 268.339 7.90234 268.881 7.73633C269.423 7.57031 269.96 7.4873 270.491 7.4873C271.122 7.4873 271.681 7.57031 272.168 7.73633C272.655 7.90234 273.081 8.12923 273.446 8.41699C273.812 8.70475 274.116 9.04232 274.359 9.42969C274.614 9.81706 274.808 10.2321 274.94 10.6748C275.394 10.2874 275.887 9.9056 276.418 9.5293C276.96 9.14193 277.514 8.79883 278.078 8.5C278.654 8.20117 279.235 7.95768 279.821 7.76953C280.419 7.58138 281 7.4873 281.564 7.4873C282.428 7.4873 283.158 7.63672 283.756 7.93555C284.365 8.23438 284.857 8.62728 285.233 9.11426C285.621 9.60124 285.897 10.1602 286.064 10.791C286.241 11.4108 286.329 12.0417 286.329 12.6836V18.3281C286.329 19.2689 286.34 20.0934 286.362 20.8018C286.384 21.499 286.418 22.1022 286.462 22.6113C286.506 23.1204 286.556 23.5465 286.611 23.8896C286.678 24.2327 286.744 24.5205 286.811 24.7529V24.8193H282.959V24.7529C283.025 24.5205 283.086 24.2327 283.142 23.8896C283.208 23.5465 283.263 23.1204 283.308 22.6113C283.352 22.1022 283.385 21.499 283.407 20.8018C283.429 20.0934 283.44 19.2689 283.44 18.3281V13.6299C283.44 12.1689 283.147 11.0954 282.561 10.4092C281.974 9.72298 281.188 9.37988 280.203 9.37988C279.86 9.37988 279.478 9.44629 279.058 9.5791C278.648 9.71191 278.222 9.89453 277.779 10.127C277.337 10.3594 276.894 10.6305 276.451 10.9404C276.008 11.2393 275.593 11.5602 275.206 11.9033C275.228 12.0361 275.239 12.1689 275.239 12.3018C275.239 12.4346 275.239 12.5618 275.239 12.6836V18.3281C275.239 19.2689 275.25 20.0934 275.272 20.8018C275.306 21.499 275.339 22.1022 275.372 22.6113C275.416 23.1204 275.466 23.5465 275.522 23.8896C275.588 24.2327 275.654 24.5205 275.721 24.7529V24.8193H271.886V24.7529C271.952 24.5205 272.013 24.2327 272.068 23.8896C272.124 23.5465 272.174 23.1204 272.218 22.6113C272.262 22.1022 272.295 21.499 272.317 20.8018C272.34 20.0934 272.351 19.2689 272.351 18.3281V13.6299ZM294.418 19.9219C294.418 19.0475 294.595 18.2894 294.949 17.6475C295.315 17.0055 295.796 16.4577 296.394 16.0039C296.991 15.5501 297.672 15.1849 298.436 14.9082C299.199 14.6204 299.991 14.3991 300.81 14.2441C301.629 14.0781 302.437 13.9674 303.234 13.9121C304.03 13.8457 304.761 13.807 305.425 13.7959V12.9492C305.425 12.2188 305.331 11.5879 305.143 11.0566C304.955 10.5254 304.689 10.0882 304.346 9.74512C304.003 9.39095 303.588 9.13086 303.101 8.96484C302.625 8.78776 302.099 8.69922 301.524 8.69922C301.125 8.69922 300.732 8.73242 300.345 8.79883C299.957 8.86523 299.554 8.97591 299.133 9.13086C298.723 9.28581 298.286 9.49609 297.821 9.76172C297.368 10.0273 296.875 10.3649 296.344 10.7744L296.178 10.6748L297.307 8.33398C297.672 8.16797 298.032 8.03516 298.386 7.93555C298.74 7.82487 299.1 7.73633 299.465 7.66992C299.83 7.60352 300.201 7.55924 300.577 7.53711C300.965 7.50391 301.369 7.4873 301.789 7.4873C302.951 7.4873 303.942 7.63118 304.761 7.91895C305.591 8.19564 306.266 8.58301 306.786 9.08105C307.318 9.56803 307.705 10.1436 307.948 10.8076C308.192 11.4606 308.314 12.1634 308.314 12.916V18.3281C308.314 19.2689 308.325 20.0934 308.347 20.8018C308.38 21.499 308.413 22.1022 308.446 22.6113C308.491 23.1204 308.54 23.5465 308.596 23.8896C308.662 24.2327 308.729 24.5205 308.795 24.7529V24.8193H305.126V24.7529C305.181 24.5758 305.22 24.3766 305.242 24.1553C305.276 23.9339 305.303 23.6683 305.325 23.3584C305.093 23.5576 304.816 23.7624 304.495 23.9727C304.185 24.1829 303.826 24.3766 303.416 24.5537C303.018 24.7197 302.569 24.8525 302.071 24.9521C301.584 25.0628 301.048 25.1182 300.461 25.1182C298.535 25.1182 297.047 24.6699 295.995 23.7734C294.944 22.8659 294.418 21.582 294.418 19.9219ZM305.425 15.0908C304.418 15.1019 303.449 15.1628 302.52 15.2734C301.59 15.373 300.765 15.5889 300.046 15.9209C299.338 16.2529 298.768 16.7288 298.336 17.3486C297.915 17.9574 297.705 18.7708 297.705 19.7891C297.705 21.0951 298.032 22.0911 298.685 22.7773C299.338 23.4635 300.24 23.8066 301.391 23.8066C301.922 23.8066 302.403 23.7347 302.835 23.5908C303.278 23.4359 303.665 23.2477 303.997 23.0264C304.34 22.7939 304.628 22.5449 304.86 22.2793C305.093 22.0026 305.27 21.737 305.392 21.4824C305.414 21.0618 305.425 20.597 305.425 20.0879C305.425 19.5677 305.425 18.9811 305.425 18.3281V15.0908ZM324.189 32.4062C325.085 32.4062 325.843 32.3066 326.463 32.1074C327.083 31.9193 327.592 31.6536 327.99 31.3105C328.4 30.9674 328.71 30.5524 328.92 30.0654C329.141 29.5895 329.302 29.0638 329.402 28.4883C329.512 27.9128 329.573 27.2985 329.584 26.6455C329.606 25.9925 329.617 25.3174 329.617 24.6201V24.0723C329.075 24.36 328.422 24.609 327.658 24.8193C326.895 25.0186 326.031 25.1182 325.069 25.1182C323.751 25.1182 322.556 24.9134 321.483 24.5039C320.409 24.0944 319.49 23.5078 318.727 22.7441C317.974 21.9805 317.393 21.0563 316.984 19.9717C316.574 18.876 316.369 17.6475 316.369 16.2861C316.369 15.0355 316.569 13.8734 316.967 12.7998C317.376 11.7262 317.946 10.7965 318.677 10.0107C319.418 9.22493 320.298 8.61068 321.317 8.16797C322.346 7.71419 323.48 7.4873 324.72 7.4873C325.251 7.4873 325.738 7.53158 326.181 7.62012C326.624 7.70866 327.033 7.8304 327.409 7.98535C327.797 8.12923 328.156 8.30078 328.488 8.5C328.832 8.68815 329.164 8.8929 329.485 9.11426L329.319 7.88574V7.81934H332.987V7.88574C332.921 8.11816 332.855 8.40592 332.788 8.74902C332.733 9.09212 332.683 9.51823 332.639 10.0273C332.606 10.5365 332.572 11.1452 332.539 11.8535C332.517 12.5508 332.506 13.3698 332.506 14.3105V25.5996C332.506 26.6178 332.368 27.6084 332.091 28.5713C331.825 29.5452 331.366 30.4085 330.713 31.1611C330.071 31.9137 329.219 32.5169 328.156 32.9707C327.094 33.4245 325.771 33.6514 324.189 33.6514C323.635 33.6514 323.076 33.596 322.512 33.4854C321.947 33.3857 321.411 33.2585 320.902 33.1035C320.392 32.9596 319.933 32.7992 319.524 32.6221C319.114 32.445 318.788 32.29 318.544 32.1572L318.029 28.9697L318.295 28.9033C318.561 29.4788 318.92 29.9824 319.374 30.4141C319.839 30.8568 320.343 31.222 320.885 31.5098C321.427 31.8086 321.986 32.0299 322.562 32.1738C323.148 32.3288 323.691 32.4062 324.189 32.4062ZM325.816 23.9062C326.612 23.9062 327.332 23.7734 327.974 23.5078C328.627 23.2422 329.175 22.9323 329.617 22.5781V14.3105C329.617 13.6908 329.612 13.1318 329.601 12.6338C329.59 12.1247 329.584 11.6654 329.584 11.2559C329.319 10.8464 329.009 10.4867 328.654 10.1768C328.311 9.85579 327.941 9.59017 327.542 9.37988C327.155 9.15853 326.756 8.99251 326.347 8.88184C325.937 8.76009 325.533 8.69922 325.135 8.69922C324.294 8.69922 323.536 8.85417 322.861 9.16406C322.185 9.47396 321.61 9.9222 321.134 10.5088C320.669 11.0843 320.309 11.7926 320.055 12.6338C319.811 13.4639 319.69 14.4102 319.69 15.4727C319.69 16.668 319.822 17.7803 320.088 18.8096C320.354 19.8389 320.741 20.7354 321.25 21.499C321.77 22.2516 322.412 22.8438 323.176 23.2754C323.94 23.696 324.82 23.9062 325.816 23.9062ZM342.139 14.3105C342.139 13.3698 342.122 12.5508 342.089 11.8535C342.067 11.1452 342.034 10.5365 341.99 10.0273C341.956 9.51823 341.907 9.09212 341.84 8.74902C341.785 8.40592 341.724 8.11816 341.658 7.88574V7.81934H345.492V7.88574C345.426 8.11816 345.365 8.40592 345.31 8.74902C345.255 9.09212 345.205 9.51823 345.16 10.0273C345.116 10.5365 345.083 11.1452 345.061 11.8535C345.039 12.5508 345.028 13.3698 345.028 14.3105V18.3281C345.028 19.2689 345.039 20.0934 345.061 20.8018C345.083 21.499 345.116 22.1022 345.16 22.6113C345.205 23.1204 345.255 23.5465 345.31 23.8896C345.365 24.2327 345.426 24.5205 345.492 24.7529V24.8193H341.658V24.7529C341.724 24.5205 341.785 24.2327 341.84 23.8896C341.907 23.5465 341.956 23.1204 341.99 22.6113C342.034 22.1022 342.067 21.499 342.089 20.8018C342.122 20.0934 342.139 19.2689 342.139 18.3281V14.3105ZM341.79 2.78906C341.79 2.54557 341.835 2.31868 341.923 2.1084C342.023 1.88704 342.15 1.69889 342.305 1.54395C342.46 1.37793 342.643 1.25065 342.853 1.16211C343.074 1.0625 343.312 1.0127 343.567 1.0127C343.821 1.0127 344.054 1.0625 344.264 1.16211C344.485 1.25065 344.673 1.37793 344.828 1.54395C344.994 1.69889 345.122 1.88704 345.21 2.1084C345.31 2.31868 345.36 2.54557 345.36 2.78906C345.36 3.29818 345.188 3.72428 344.845 4.06738C344.502 4.41048 344.076 4.58203 343.567 4.58203C343.312 4.58203 343.074 4.53776 342.853 4.44922C342.643 4.34961 342.46 4.22233 342.305 4.06738C342.15 3.90137 342.023 3.71322 341.923 3.50293C341.835 3.28158 341.79 3.04362 341.79 2.78906ZM368.456 21.2832L367.228 24.2383C366.929 24.3711 366.586 24.4928 366.199 24.6035C365.811 24.7142 365.407 24.8083 364.987 24.8857C364.577 24.9632 364.162 25.0186 363.742 25.0518C363.321 25.096 362.923 25.1182 362.546 25.1182C361.207 25.1182 359.967 24.9245 358.828 24.5371C357.699 24.1387 356.719 23.5632 355.889 22.8105C355.07 22.0579 354.428 21.1338 353.963 20.0381C353.498 18.9424 353.266 17.6917 353.266 16.2861C353.266 15.0355 353.504 13.8789 353.98 12.8164C354.467 11.7428 355.136 10.8132 355.989 10.0273C356.852 9.24154 357.865 8.62728 359.027 8.18457C360.189 7.74186 361.451 7.52051 362.812 7.52051C363.432 7.52051 364.096 7.57585 364.804 7.68652C365.512 7.78613 366.143 7.91895 366.697 8.08496L367.875 10.9072L367.676 11.0234C367.399 10.6803 367.067 10.3704 366.68 10.0938C366.304 9.80599 365.883 9.5625 365.418 9.36328C364.965 9.16406 364.483 9.00911 363.974 8.89844C363.465 8.78776 362.945 8.73242 362.413 8.73242C361.55 8.73242 360.764 8.88737 360.056 9.19727C359.348 9.49609 358.739 9.93327 358.23 10.5088C357.721 11.0843 357.322 11.7926 357.035 12.6338C356.758 13.4639 356.62 14.4102 356.62 15.4727C356.62 16.668 356.752 17.7803 357.018 18.8096C357.295 19.8389 357.699 20.7354 358.23 21.499C358.772 22.2516 359.447 22.8438 360.255 23.2754C361.074 23.696 362.032 23.9062 363.127 23.9062C363.636 23.9062 364.14 23.8454 364.638 23.7236C365.147 23.5908 365.623 23.4082 366.066 23.1758C366.52 22.9323 366.935 22.6445 367.311 22.3125C367.687 21.9805 368.003 21.6042 368.257 21.1836L368.456 21.2832ZM374.918 19.9219C374.918 19.0475 375.095 18.2894 375.45 17.6475C375.815 17.0055 376.296 16.4577 376.894 16.0039C377.492 15.5501 378.172 15.1849 378.936 14.9082C379.7 14.6204 380.491 14.3991 381.31 14.2441C382.129 14.0781 382.937 13.9674 383.734 13.9121C384.531 13.8457 385.261 13.807 385.925 13.7959V12.9492C385.925 12.2188 385.831 11.5879 385.643 11.0566C385.455 10.5254 385.189 10.0882 384.846 9.74512C384.503 9.39095 384.088 9.13086 383.601 8.96484C383.125 8.78776 382.599 8.69922 382.024 8.69922C381.625 8.69922 381.233 8.73242 380.845 8.79883C380.458 8.86523 380.054 8.97591 379.633 9.13086C379.224 9.28581 378.787 9.49609 378.322 9.76172C377.868 10.0273 377.375 10.3649 376.844 10.7744L376.678 10.6748L377.807 8.33398C378.172 8.16797 378.532 8.03516 378.886 7.93555C379.24 7.82487 379.6 7.73633 379.965 7.66992C380.331 7.60352 380.701 7.55924 381.078 7.53711C381.465 7.50391 381.869 7.4873 382.289 7.4873C383.452 7.4873 384.442 7.63118 385.261 7.91895C386.091 8.19564 386.766 8.58301 387.287 9.08105C387.818 9.56803 388.205 10.1436 388.449 10.8076C388.692 11.4606 388.814 12.1634 388.814 12.916V18.3281C388.814 19.2689 388.825 20.0934 388.847 20.8018C388.88 21.499 388.914 22.1022 388.947 22.6113C388.991 23.1204 389.041 23.5465 389.096 23.8896C389.163 24.2327 389.229 24.5205 389.295 24.7529V24.8193H385.626V24.7529C385.682 24.5758 385.72 24.3766 385.743 24.1553C385.776 23.9339 385.803 23.6683 385.826 23.3584C385.593 23.5576 385.317 23.7624 384.996 23.9727C384.686 24.1829 384.326 24.3766 383.916 24.5537C383.518 24.7197 383.07 24.8525 382.572 24.9521C382.085 25.0628 381.548 25.1182 380.961 25.1182C379.036 25.1182 377.547 24.6699 376.496 23.7734C375.444 22.8659 374.918 21.582 374.918 19.9219ZM385.925 15.0908C384.918 15.1019 383.95 15.1628 383.02 15.2734C382.09 15.373 381.266 15.5889 380.546 15.9209C379.838 16.2529 379.268 16.7288 378.836 17.3486C378.416 17.9574 378.206 18.7708 378.206 19.7891C378.206 21.0951 378.532 22.0911 379.185 22.7773C379.838 23.4635 380.74 23.8066 381.891 23.8066C382.422 23.8066 382.904 23.7347 383.335 23.5908C383.778 23.4359 384.165 23.2477 384.497 23.0264C384.841 22.7939 385.128 22.5449 385.361 22.2793C385.593 22.0026 385.77 21.737 385.892 21.4824C385.914 21.0618 385.925 20.597 385.925 20.0879C385.925 19.5677 385.925 18.9811 385.925 18.3281V15.0908ZM398.364 6.49121C398.364 5.55046 398.347 4.73145 398.314 4.03418C398.292 3.32585 398.259 2.71712 398.214 2.20801C398.181 1.69889 398.131 1.27279 398.065 0.929688C398.01 0.586589 397.949 0.298828 397.882 0.0664062V0H401.717V0.0664062C401.651 0.298828 401.59 0.586589 401.535 0.929688C401.479 1.27279 401.43 1.69889 401.385 2.20801C401.341 2.71712 401.308 3.32585 401.286 4.03418C401.264 4.73145 401.252 5.55046 401.252 6.49121V18.3281C401.252 19.2689 401.264 20.0934 401.286 20.8018C401.308 21.499 401.341 22.1022 401.385 22.6113C401.43 23.1204 401.479 23.5465 401.535 23.8896C401.59 24.2327 401.651 24.5205 401.717 24.7529V24.8193H397.882V24.7529C397.949 24.5205 398.01 24.2327 398.065 23.8896C398.131 23.5465 398.181 23.1204 398.214 22.6113C398.259 22.1022 398.292 21.499 398.314 20.8018C398.347 20.0934 398.364 19.2689 398.364 18.3281V6.49121ZM439.295 21.2832L438.066 24.2383C437.767 24.3711 437.424 24.4928 437.037 24.6035C436.649 24.7142 436.245 24.8083 435.825 24.8857C435.415 24.9632 435 25.0186 434.58 25.0518C434.159 25.096 433.761 25.1182 433.384 25.1182C432.045 25.1182 430.806 24.9245 429.666 24.5371C428.537 24.1387 427.557 23.5632 426.727 22.8105C425.908 22.0579 425.266 21.1338 424.801 20.0381C424.337 18.9424 424.104 17.6917 424.104 16.2861C424.104 15.0355 424.342 13.8789 424.818 12.8164C425.305 11.7428 425.975 10.8132 426.827 10.0273C427.69 9.24154 428.703 8.62728 429.865 8.18457C431.027 7.74186 432.289 7.52051 433.65 7.52051C434.27 7.52051 434.934 7.57585 435.642 7.68652C436.351 7.78613 436.981 7.91895 437.535 8.08496L438.714 10.9072L438.514 11.0234C438.238 10.6803 437.906 10.3704 437.518 10.0938C437.142 9.80599 436.721 9.5625 436.257 9.36328C435.803 9.16406 435.321 9.00911 434.812 8.89844C434.303 8.78776 433.783 8.73242 433.252 8.73242C432.388 8.73242 431.603 8.88737 430.894 9.19727C430.186 9.49609 429.577 9.93327 429.068 10.5088C428.559 11.0843 428.161 11.7926 427.873 12.6338C427.596 13.4639 427.458 14.4102 427.458 15.4727C427.458 16.668 427.591 17.7803 427.856 18.8096C428.133 19.8389 428.537 20.7354 429.068 21.499C429.61 22.2516 430.286 22.8438 431.093 23.2754C431.912 23.696 432.87 23.9062 433.966 23.9062C434.475 23.9062 434.978 23.8454 435.476 23.7236C435.985 23.5908 436.461 23.4082 436.904 23.1758C437.358 22.9323 437.773 22.6445 438.149 22.3125C438.525 21.9805 438.841 21.6042 439.095 21.1836L439.295 21.2832ZM458.507 13.6299C458.507 12.1689 458.213 11.0954 457.627 10.4092C457.04 9.72298 456.254 9.37988 455.269 9.37988C454.904 9.37988 454.495 9.45736 454.041 9.6123C453.598 9.75618 453.139 9.9554 452.663 10.21C452.198 10.4645 451.733 10.7633 451.268 11.1064C450.803 11.4385 450.372 11.7926 449.973 12.1689V18.3281C449.973 19.2689 449.984 20.0934 450.007 20.8018C450.029 21.499 450.062 22.1022 450.106 22.6113C450.15 23.1204 450.2 23.5465 450.256 23.8896C450.311 24.2327 450.372 24.5205 450.438 24.7529V24.8193H446.603V24.7529C446.67 24.5205 446.731 24.2327 446.786 23.8896C446.852 23.5465 446.902 23.1204 446.935 22.6113C446.98 22.1022 447.013 21.499 447.035 20.8018C447.068 20.0934 447.085 19.2689 447.085 18.3281V6.49121C447.085 5.55046 447.068 4.73145 447.035 4.03418C447.013 3.32585 446.98 2.71712 446.935 2.20801C446.902 1.69889 446.852 1.27279 446.786 0.929688C446.731 0.586589 446.67 0.298828 446.603 0.0664062V0H450.438V0.0664062C450.372 0.298828 450.311 0.586589 450.256 0.929688C450.2 1.27279 450.15 1.69889 450.106 2.20801C450.062 2.71712 450.029 3.32585 450.007 4.03418C449.984 4.73145 449.973 5.55046 449.973 6.49121V10.7412C450.416 10.3428 450.903 9.94987 451.434 9.5625C451.977 9.17513 452.536 8.8265 453.111 8.5166C453.687 8.20671 454.273 7.95768 454.871 7.76953C455.469 7.58138 456.055 7.4873 456.631 7.4873C457.494 7.4873 458.224 7.63672 458.822 7.93555C459.431 8.23438 459.923 8.62728 460.3 9.11426C460.687 9.60124 460.964 10.1602 461.13 10.791C461.307 11.4108 461.395 12.0417 461.395 12.6836V18.3281C461.395 19.2689 461.406 20.0934 461.428 20.8018C461.451 21.499 461.484 22.1022 461.528 22.6113C461.572 23.1204 461.622 23.5465 461.677 23.8896C461.733 24.2327 461.794 24.5205 461.86 24.7529V24.8193H458.025V24.7529C458.092 24.5205 458.152 24.2327 458.208 23.8896C458.274 23.5465 458.324 23.1204 458.357 22.6113C458.401 22.1022 458.435 21.499 458.457 20.8018C458.49 20.0934 458.507 19.2689 458.507 18.3281V13.6299ZM469.434 16.2861C469.434 15.0355 469.667 13.8789 470.132 12.8164C470.597 11.7428 471.233 10.8132 472.041 10.0273C472.86 9.24154 473.823 8.62728 474.93 8.18457C476.036 7.74186 477.226 7.52051 478.499 7.52051C479.75 7.52051 480.923 7.73079 482.018 8.15137C483.125 8.56087 484.088 9.14746 484.907 9.91113C485.726 10.6748 486.368 11.6045 486.833 12.7002C487.309 13.7959 487.547 15.0244 487.547 16.3857C487.547 17.5257 487.348 18.6214 486.949 19.6729C486.551 20.7243 485.964 21.654 485.189 22.4619C484.415 23.2699 483.463 23.9173 482.334 24.4043C481.216 24.8802 479.927 25.1182 478.466 25.1182C477.226 25.1182 476.058 24.9134 474.963 24.5039C473.867 24.0944 472.91 23.5078 472.091 22.7441C471.272 21.9805 470.624 21.0563 470.148 19.9717C469.672 18.876 469.434 17.6475 469.434 16.2861ZM478.848 23.9062C479.633 23.9062 480.353 23.7513 481.006 23.4414C481.67 23.1315 482.24 22.6833 482.716 22.0967C483.192 21.5101 483.562 20.7962 483.828 19.9551C484.094 19.1139 484.226 18.1621 484.226 17.0996C484.226 15.9043 484.099 14.7975 483.845 13.7793C483.59 12.75 483.208 11.8646 482.699 11.123C482.201 10.3704 481.57 9.78385 480.806 9.36328C480.043 8.94271 479.152 8.73242 478.134 8.73242C477.348 8.73242 476.628 8.88737 475.975 9.19727C475.322 9.49609 474.752 9.93327 474.265 10.5088C473.79 11.0843 473.419 11.7926 473.153 12.6338C472.888 13.4639 472.755 14.4102 472.755 15.4727C472.755 16.668 472.882 17.7803 473.137 18.8096C473.402 19.8389 473.79 20.7354 474.299 21.499C474.808 22.2516 475.439 22.8438 476.191 23.2754C476.955 23.696 477.84 23.9062 478.848 23.9062ZM509.498 21.2832L508.269 24.2383C507.971 24.3711 507.628 24.4928 507.24 24.6035C506.853 24.7142 506.449 24.8083 506.028 24.8857C505.619 24.9632 505.204 25.0186 504.783 25.0518C504.363 25.096 503.964 25.1182 503.588 25.1182C502.249 25.1182 501.009 24.9245 499.869 24.5371C498.74 24.1387 497.761 23.5632 496.931 22.8105C496.112 22.0579 495.47 21.1338 495.005 20.0381C494.54 18.9424 494.308 17.6917 494.308 16.2861C494.308 15.0355 494.546 13.8789 495.021 12.8164C495.508 11.7428 496.178 10.8132 497.03 10.0273C497.893 9.24154 498.906 8.62728 500.068 8.18457C501.23 7.74186 502.492 7.52051 503.853 7.52051C504.473 7.52051 505.137 7.57585 505.846 7.68652C506.554 7.78613 507.185 7.91895 507.738 8.08496L508.917 10.9072L508.718 11.0234C508.441 10.6803 508.109 10.3704 507.722 10.0938C507.345 9.80599 506.925 9.5625 506.46 9.36328C506.006 9.16406 505.525 9.00911 505.016 8.89844C504.506 8.78776 503.986 8.73242 503.455 8.73242C502.592 8.73242 501.806 8.88737 501.098 9.19727C500.389 9.49609 499.781 9.93327 499.271 10.5088C498.762 11.0843 498.364 11.7926 498.076 12.6338C497.799 13.4639 497.661 14.4102 497.661 15.4727C497.661 16.668 497.794 17.7803 498.06 18.8096C498.336 19.8389 498.74 20.7354 499.271 21.499C499.814 22.2516 500.489 22.8438 501.297 23.2754C502.116 23.696 503.073 23.9062 504.169 23.9062C504.678 23.9062 505.182 23.8454 505.68 23.7236C506.189 23.5908 506.665 23.4082 507.107 23.1758C507.561 22.9323 507.976 22.6445 508.352 22.3125C508.729 21.9805 509.044 21.6042 509.299 21.1836L509.498 21.2832ZM515.894 16.2861C515.894 15.0355 516.126 13.8789 516.591 12.8164C517.056 11.7428 517.692 10.8132 518.5 10.0273C519.319 9.24154 520.282 8.62728 521.389 8.18457C522.495 7.74186 523.685 7.52051 524.958 7.52051C526.209 7.52051 527.382 7.73079 528.478 8.15137C529.584 8.56087 530.547 9.14746 531.366 9.91113C532.185 10.6748 532.827 11.6045 533.292 12.7002C533.768 13.7959 534.006 15.0244 534.006 16.3857C534.006 17.5257 533.807 18.6214 533.408 19.6729C533.01 20.7243 532.423 21.654 531.648 22.4619C530.874 23.2699 529.922 23.9173 528.793 24.4043C527.675 24.8802 526.386 25.1182 524.925 25.1182C523.685 25.1182 522.518 24.9134 521.422 24.5039C520.326 24.0944 519.369 23.5078 518.55 22.7441C517.731 21.9805 517.083 21.0563 516.607 19.9717C516.132 18.876 515.894 17.6475 515.894 16.2861ZM525.307 23.9062C526.092 23.9062 526.812 23.7513 527.465 23.4414C528.129 23.1315 528.699 22.6833 529.175 22.0967C529.651 21.5101 530.021 20.7962 530.287 19.9551C530.553 19.1139 530.686 18.1621 530.686 17.0996C530.686 15.9043 530.558 14.7975 530.304 13.7793C530.049 12.75 529.667 11.8646 529.158 11.123C528.66 10.3704 528.029 9.78385 527.266 9.36328C526.502 8.94271 525.611 8.73242 524.593 8.73242C523.807 8.73242 523.088 8.88737 522.435 9.19727C521.782 9.49609 521.212 9.93327 520.725 10.5088C520.249 11.0843 519.878 11.7926 519.612 12.6338C519.347 13.4639 519.214 14.4102 519.214 15.4727C519.214 16.668 519.341 17.7803 519.596 18.8096C519.861 19.8389 520.249 20.7354 520.758 21.499C521.267 22.2516 521.898 22.8438 522.65 23.2754C523.414 23.696 524.299 23.9062 525.307 23.9062ZM542.261 6.49121C542.261 5.55046 542.244 4.73145 542.211 4.03418C542.189 3.32585 542.156 2.71712 542.111 2.20801C542.078 1.69889 542.028 1.27279 541.962 0.929688C541.907 0.586589 541.846 0.298828 541.779 0.0664062V0H545.614V0.0664062C545.548 0.298828 545.487 0.586589 545.432 0.929688C545.376 1.27279 545.327 1.69889 545.282 2.20801C545.238 2.71712 545.205 3.32585 545.183 4.03418C545.161 4.73145 545.149 5.55046 545.149 6.49121V18.3281C545.149 19.2689 545.161 20.0934 545.183 20.8018C545.205 21.499 545.238 22.1022 545.282 22.6113C545.327 23.1204 545.376 23.5465 545.432 23.8896C545.487 24.2327 545.548 24.5205 545.614 24.7529V24.8193H541.779V24.7529C541.846 24.5205 541.907 24.2327 541.962 23.8896C542.028 23.5465 542.078 23.1204 542.111 22.6113C542.156 22.1022 542.189 21.499 542.211 20.8018C542.244 20.0934 542.261 19.2689 542.261 18.3281V6.49121ZM553.454 19.9219C553.454 19.0475 553.631 18.2894 553.986 17.6475C554.351 17.0055 554.832 16.4577 555.43 16.0039C556.028 15.5501 556.708 15.1849 557.472 14.9082C558.236 14.6204 559.027 14.3991 559.846 14.2441C560.665 14.0781 561.473 13.9674 562.27 13.9121C563.067 13.8457 563.797 13.807 564.461 13.7959V12.9492C564.461 12.2188 564.367 11.5879 564.179 11.0566C563.991 10.5254 563.725 10.0882 563.382 9.74512C563.039 9.39095 562.624 9.13086 562.137 8.96484C561.661 8.78776 561.135 8.69922 560.56 8.69922C560.161 8.69922 559.768 8.73242 559.381 8.79883C558.994 8.86523 558.59 8.97591 558.169 9.13086C557.76 9.28581 557.322 9.49609 556.858 9.76172C556.404 10.0273 555.911 10.3649 555.38 10.7744L555.214 10.6748L556.343 8.33398C556.708 8.16797 557.068 8.03516 557.422 7.93555C557.776 7.82487 558.136 7.73633 558.501 7.66992C558.866 7.60352 559.237 7.55924 559.613 7.53711C560.001 7.50391 560.405 7.4873 560.825 7.4873C561.987 7.4873 562.978 7.63118 563.797 7.91895C564.627 8.19564 565.302 8.58301 565.822 9.08105C566.354 9.56803 566.741 10.1436 566.985 10.8076C567.228 11.4606 567.35 12.1634 567.35 12.916V18.3281C567.35 19.2689 567.361 20.0934 567.383 20.8018C567.416 21.499 567.449 22.1022 567.483 22.6113C567.527 23.1204 567.577 23.5465 567.632 23.8896C567.698 24.2327 567.765 24.5205 567.831 24.7529V24.8193H564.162V24.7529C564.218 24.5758 564.256 24.3766 564.279 24.1553C564.312 23.9339 564.339 23.6683 564.362 23.3584C564.129 23.5576 563.852 23.7624 563.531 23.9727C563.222 24.1829 562.862 24.3766 562.452 24.5537C562.054 24.7197 561.606 24.8525 561.108 24.9521C560.621 25.0628 560.084 25.1182 559.497 25.1182C557.571 25.1182 556.083 24.6699 555.031 23.7734C553.98 22.8659 553.454 21.582 553.454 19.9219ZM564.461 15.0908C563.454 15.1019 562.486 15.1628 561.556 15.2734C560.626 15.373 559.802 15.5889 559.082 15.9209C558.374 16.2529 557.804 16.7288 557.372 17.3486C556.952 17.9574 556.741 18.7708 556.741 19.7891C556.741 21.0951 557.068 22.0911 557.721 22.7773C558.374 23.4635 559.276 23.8066 560.427 23.8066C560.958 23.8066 561.44 23.7347 561.871 23.5908C562.314 23.4359 562.701 23.2477 563.033 23.0264C563.376 22.7939 563.664 22.5449 563.897 22.2793C564.129 22.0026 564.306 21.737 564.428 21.4824C564.45 21.0618 564.461 20.597 564.461 20.0879C564.461 19.5677 564.461 18.9811 564.461 18.3281V15.0908ZM582.81 23.8398C583.142 23.8398 583.468 23.779 583.789 23.6572C584.121 23.5355 584.437 23.3695 584.736 23.1592C585.045 22.9489 585.339 22.7109 585.615 22.4453C585.903 22.1686 586.169 21.8809 586.412 21.582L586.578 21.665L585.499 24.3379C585.366 24.4043 585.2 24.4873 585.001 24.5869C584.813 24.6755 584.581 24.7585 584.304 24.8359C584.038 24.9245 583.723 24.9964 583.358 25.0518C582.992 25.1182 582.561 25.1514 582.063 25.1514C580.58 25.1514 579.423 24.7529 578.593 23.9561C577.774 23.1481 577.365 21.8919 577.365 20.1875V9.11426L574.575 9.21387V7.75293C574.919 7.77507 575.328 7.79167 575.804 7.80273C576.28 7.8138 576.8 7.81934 577.365 7.81934C577.353 7.03353 577.331 6.3418 577.298 5.74414C577.276 5.13542 577.243 4.6097 577.198 4.16699C577.165 3.71322 577.121 3.33138 577.066 3.02148C577.01 2.71159 576.955 2.4515 576.9 2.24121V2.1748H580.735V2.24121C580.668 2.4515 580.607 2.71159 580.552 3.02148C580.497 3.33138 580.447 3.70768 580.403 4.15039C580.369 4.5931 580.336 5.11882 580.303 5.72754C580.281 6.3252 580.264 7.02246 580.253 7.81934C580.95 7.80827 581.631 7.7972 582.295 7.78613C582.97 7.764 583.579 7.74186 584.121 7.71973C584.675 7.68652 585.14 7.65885 585.516 7.63672C585.903 7.60352 586.158 7.57585 586.28 7.55371L585.981 9.24707C585.416 9.236 584.824 9.2194 584.204 9.19727C583.673 9.17513 583.064 9.15853 582.378 9.14746C581.692 9.13639 580.984 9.12533 580.253 9.11426V20.5361C580.253 21.2223 580.325 21.7812 580.469 22.2129C580.624 22.6335 580.818 22.9655 581.05 23.209C581.294 23.4525 581.565 23.6185 581.864 23.707C582.173 23.7956 582.489 23.8398 582.81 23.8398ZM601.706 25.1182C600.478 25.1182 599.327 24.9245 598.253 24.5371C597.18 24.1497 596.244 23.5853 595.448 22.8438C594.651 22.0911 594.02 21.167 593.555 20.0713C593.101 18.9645 592.874 17.7028 592.874 16.2861C592.874 15.0355 593.085 13.8789 593.505 12.8164C593.926 11.7428 594.507 10.8132 595.248 10.0273C595.99 9.24154 596.853 8.62728 597.838 8.18457C598.834 7.74186 599.908 7.52051 601.059 7.52051C602.199 7.52051 603.256 7.71973 604.23 8.11816C605.204 8.50553 606.045 9.07552 606.753 9.82812C607.473 10.5697 608.037 11.4938 608.447 12.6006C608.867 13.6963 609.094 14.9469 609.127 16.3525C607.877 16.3304 606.626 16.3138 605.375 16.3027C604.125 16.2917 602.824 16.2861 601.474 16.2861C600.511 16.2861 599.57 16.2917 598.652 16.3027C597.744 16.3138 596.925 16.3304 596.195 16.3525C596.261 17.5036 596.438 18.5439 596.726 19.4736C597.025 20.4033 597.429 21.2002 597.938 21.8643C598.458 22.5173 599.083 23.0208 599.814 23.375C600.555 23.7292 601.391 23.9062 602.321 23.9062C602.963 23.9062 603.566 23.8343 604.13 23.6904C604.706 23.5355 605.226 23.3252 605.691 23.0596C606.156 22.7939 606.571 22.484 606.936 22.1299C607.301 21.7646 607.611 21.3717 607.866 20.9512L608.065 21.0508L606.836 24.0059C606.239 24.3158 605.525 24.5814 604.695 24.8027C603.865 25.013 602.868 25.1182 601.706 25.1182ZM599.498 14.9912C600.605 14.9912 601.712 14.9912 602.819 14.9912C603.937 14.9801 604.949 14.958 605.857 14.9248C605.757 13.9619 605.569 13.0986 605.292 12.335C605.016 11.5713 604.661 10.9238 604.23 10.3926C603.798 9.86133 603.289 9.45182 602.702 9.16406C602.116 8.8763 601.468 8.73242 600.76 8.73242C600.118 8.73242 599.526 8.8763 598.984 9.16406C598.452 9.44076 597.988 9.84473 597.589 10.376C597.191 10.9072 596.87 11.5602 596.626 12.335C596.383 13.0986 596.239 13.973 596.195 14.958C596.693 14.9801 597.218 14.9912 597.772 14.9912C598.325 14.9912 598.901 14.9912 599.498 14.9912ZM642.936 9.34668L647.369 20.5029L651.071 11.2559C651.148 11.0566 651.237 10.8353 651.336 10.5918C651.436 10.3372 651.525 10.0827 651.602 9.82812C651.68 9.5625 651.746 9.31348 651.801 9.08105C651.857 8.83757 651.884 8.62174 651.884 8.43359C651.884 8.28971 651.873 8.1735 651.851 8.08496C651.829 7.98535 651.807 7.91895 651.785 7.88574V7.81934H654.773V7.88574C654.574 8.09603 654.33 8.44466 654.042 8.93164C653.766 9.40755 653.434 10.1048 653.046 11.0234L647.153 25.0518H646.207L641.923 14.6592L637.64 25.0518H636.694L631.249 11.8369C631.049 11.3499 630.833 10.8851 630.601 10.4424C630.38 9.98861 630.164 9.58464 629.954 9.23047C629.754 8.8763 629.577 8.58301 629.422 8.35059C629.267 8.1071 629.162 7.95215 629.107 7.88574V7.81934H633.523V7.88574C633.501 7.94108 633.484 8.02409 633.473 8.13477C633.462 8.24544 633.457 8.34505 633.457 8.43359C633.457 8.77669 633.506 9.15853 633.606 9.5791C633.717 9.98861 633.894 10.5033 634.137 11.123L637.839 20.5029L642.305 9.34668H642.936ZM660.289 16.2861C660.289 15.0355 660.521 13.8789 660.986 12.8164C661.451 11.7428 662.087 10.8132 662.895 10.0273C663.714 9.24154 664.677 8.62728 665.784 8.18457C666.891 7.74186 668.08 7.52051 669.353 7.52051C670.604 7.52051 671.777 7.73079 672.873 8.15137C673.979 8.56087 674.942 9.14746 675.761 9.91113C676.58 10.6748 677.222 11.6045 677.687 12.7002C678.163 13.7959 678.401 15.0244 678.401 16.3857C678.401 17.5257 678.202 18.6214 677.803 19.6729C677.405 20.7243 676.818 21.654 676.044 22.4619C675.269 23.2699 674.317 23.9173 673.188 24.4043C672.07 24.8802 670.781 25.1182 669.32 25.1182C668.08 25.1182 666.913 24.9134 665.817 24.5039C664.721 24.0944 663.764 23.5078 662.945 22.7441C662.126 21.9805 661.478 21.0563 661.003 19.9717C660.527 18.876 660.289 17.6475 660.289 16.2861ZM669.702 23.9062C670.488 23.9062 671.207 23.7513 671.86 23.4414C672.524 23.1315 673.094 22.6833 673.57 22.0967C674.046 21.5101 674.417 20.7962 674.682 19.9551C674.948 19.1139 675.081 18.1621 675.081 17.0996C675.081 15.9043 674.953 14.7975 674.699 13.7793C674.444 12.75 674.062 11.8646 673.553 11.123C673.055 10.3704 672.424 9.78385 671.661 9.36328C670.897 8.94271 670.006 8.73242 668.988 8.73242C668.202 8.73242 667.483 8.88737 666.83 9.19727C666.177 9.49609 665.607 9.93327 665.12 10.5088C664.644 11.0843 664.273 11.7926 664.007 12.6338C663.742 13.4639 663.609 14.4102 663.609 15.4727C663.609 16.668 663.736 17.7803 663.991 18.8096C664.256 19.8389 664.644 20.7354 665.153 21.499C665.662 22.2516 666.293 22.8438 667.045 23.2754C667.809 23.696 668.695 23.9062 669.702 23.9062ZM686.556 14.3105C686.556 13.3698 686.54 12.5508 686.506 11.8535C686.484 11.1452 686.451 10.5365 686.407 10.0273C686.374 9.51823 686.324 9.09212 686.257 8.74902C686.202 8.40592 686.141 8.11816 686.075 7.88574V7.81934H689.91V7.88574C689.821 8.1403 689.744 8.4502 689.677 8.81543C689.622 9.18066 689.578 9.65104 689.545 10.2266C689.954 9.88346 690.38 9.5459 690.823 9.21387C691.266 8.88184 691.719 8.58854 692.184 8.33398C692.649 8.07943 693.119 7.87467 693.595 7.71973C694.082 7.56478 694.569 7.4873 695.056 7.4873C695.355 7.4873 695.615 7.50391 695.837 7.53711C696.058 7.55924 696.257 7.59798 696.434 7.65332C696.611 7.69759 696.772 7.75293 696.916 7.81934C697.06 7.87467 697.198 7.93001 697.331 7.98535L696.517 11.1562L696.235 11.0898C696.102 10.6029 695.853 10.2155 695.488 9.92773C695.123 9.62891 694.625 9.47949 693.994 9.47949C693.651 9.47949 693.291 9.54036 692.915 9.66211C692.538 9.78385 692.157 9.9554 691.769 10.1768C691.382 10.387 690.994 10.6361 690.607 10.9238C690.22 11.2005 689.843 11.4938 689.478 11.8037C689.456 12.1247 689.445 12.4733 689.445 12.8496C689.445 13.2259 689.445 13.6243 689.445 14.0449V18.3281C689.445 19.2689 689.456 20.0934 689.478 20.8018C689.5 21.499 689.533 22.1022 689.578 22.6113C689.622 23.1204 689.672 23.5465 689.727 23.8896C689.783 24.2327 689.843 24.5205 689.91 24.7529V24.8193H686.075V24.7529C686.141 24.5205 686.202 24.2327 686.257 23.8896C686.324 23.5465 686.374 23.1204 686.407 22.6113C686.451 22.1022 686.484 21.499 686.506 20.8018C686.54 20.0934 686.556 19.2689 686.556 18.3281V14.3105ZM704.424 6.49121C704.424 5.55046 704.407 4.73145 704.374 4.03418C704.352 3.32585 704.318 2.71712 704.274 2.20801C704.241 1.69889 704.191 1.27279 704.125 0.929688C704.069 0.586589 704.009 0.298828 703.942 0.0664062V0H707.777V0.0664062C707.711 0.298828 707.65 0.586589 707.594 0.929688C707.539 1.27279 707.489 1.69889 707.445 2.20801C707.401 2.71712 707.368 3.32585 707.345 4.03418C707.323 4.73145 707.312 5.55046 707.312 6.49121V18.3281C707.312 19.2689 707.323 20.0934 707.345 20.8018C707.368 21.499 707.401 22.1022 707.445 22.6113C707.489 23.1204 707.539 23.5465 707.594 23.8896C707.65 24.2327 707.711 24.5205 707.777 24.7529V24.8193H703.942V24.7529C704.009 24.5205 704.069 24.2327 704.125 23.8896C704.191 23.5465 704.241 23.1204 704.274 22.6113C704.318 22.1022 704.352 21.499 704.374 20.8018C704.407 20.0934 704.424 19.2689 704.424 18.3281V6.49121ZM724.515 7.52051C724.969 7.52051 725.423 7.55924 725.877 7.63672C726.331 7.71419 726.773 7.82487 727.205 7.96875C727.637 8.11263 728.046 8.28971 728.433 8.5C728.821 8.71029 729.169 8.94824 729.479 9.21387V6.49121C729.479 5.55046 729.468 4.73145 729.446 4.03418C729.424 3.32585 729.391 2.71712 729.346 2.20801C729.302 1.69889 729.252 1.27279 729.197 0.929688C729.142 0.586589 729.081 0.298828 729.014 0.0664062V0H732.849V0.0664062C732.783 0.298828 732.717 0.586589 732.65 0.929688C732.595 1.27279 732.545 1.69889 732.501 2.20801C732.468 2.71712 732.434 3.32585 732.401 4.03418C732.379 4.73145 732.368 5.55046 732.368 6.49121V18.3281C732.368 19.2689 732.379 20.0934 732.401 20.8018C732.434 21.499 732.468 22.1022 732.501 22.6113C732.545 23.1204 732.595 23.5465 732.65 23.8896C732.717 24.2327 732.783 24.5205 732.849 24.7529V24.8193H729.18V24.7529C729.214 24.6644 729.241 24.5371 729.263 24.3711C729.286 24.194 729.313 23.9782 729.346 23.7236C728.782 24.0778 728.074 24.3988 727.221 24.6865C726.369 24.9743 725.379 25.1182 724.25 25.1182C722.933 25.1182 721.737 24.9134 720.664 24.5039C719.59 24.0944 718.672 23.5078 717.908 22.7441C717.155 21.9805 716.574 21.0563 716.165 19.9717C715.755 18.876 715.551 17.6475 715.551 16.2861C715.551 15.0355 715.772 13.8789 716.215 12.8164C716.657 11.7428 717.277 10.8132 718.074 10.0273C718.871 9.24154 719.817 8.62728 720.913 8.18457C722.009 7.74186 723.209 7.52051 724.515 7.52051ZM729.479 12.1357C729.037 10.9736 728.4 10.1159 727.57 9.5625C726.751 9.00911 725.827 8.73242 724.798 8.73242C723.934 8.73242 723.138 8.88737 722.407 9.19727C721.677 9.49609 721.051 9.93327 720.531 10.5088C720.011 11.0843 719.601 11.7926 719.303 12.6338C719.015 13.4639 718.871 14.4102 718.871 15.4727C718.871 16.668 719.004 17.7803 719.269 18.8096C719.535 19.8389 719.922 20.7354 720.431 21.499C720.952 22.2516 721.594 22.8438 722.357 23.2754C723.121 23.696 724.001 23.9062 724.997 23.9062C725.517 23.9062 726.004 23.8454 726.458 23.7236C726.912 23.6019 727.327 23.4469 727.703 23.2588C728.079 23.0706 728.411 22.8659 728.699 22.6445C728.987 22.4121 729.225 22.1852 729.413 21.9639C729.435 21.488 729.452 20.9456 729.463 20.3369C729.474 19.7282 729.479 19.0586 729.479 18.3281V12.1357ZM756.631 6.49121C756.631 5.55046 756.614 4.73145 756.581 4.03418C756.559 3.32585 756.526 2.71712 756.481 2.20801C756.448 1.69889 756.398 1.27279 756.332 0.929688C756.277 0.586589 756.216 0.298828 756.149 0.0664062V0H759.984V0.0664062C759.918 0.298828 759.857 0.586589 759.802 0.929688C759.746 1.27279 759.697 1.69889 759.652 2.20801C759.608 2.71712 759.575 3.32585 759.553 4.03418C759.531 4.73145 759.519 5.55046 759.519 6.49121V18.3281C759.519 19.2689 759.531 20.0934 759.553 20.8018C759.575 21.499 759.608 22.1022 759.652 22.6113C759.697 23.1204 759.746 23.5465 759.802 23.8896C759.857 24.2327 759.918 24.5205 759.984 24.7529V24.8193H756.149V24.7529C756.216 24.5205 756.277 24.2327 756.332 23.8896C756.398 23.5465 756.448 23.1204 756.481 22.6113C756.526 22.1022 756.559 21.499 756.581 20.8018C756.614 20.0934 756.631 19.2689 756.631 18.3281V6.49121ZM769.252 14.3105C769.252 13.3698 769.235 12.5508 769.202 11.8535C769.18 11.1452 769.147 10.5365 769.103 10.0273C769.069 9.51823 769.02 9.09212 768.953 8.74902C768.898 8.40592 768.837 8.11816 768.771 7.88574V7.81934H772.606V7.88574C772.539 8.11816 772.478 8.40592 772.423 8.74902C772.368 9.09212 772.318 9.51823 772.273 10.0273C772.229 10.5365 772.196 11.1452 772.174 11.8535C772.152 12.5508 772.141 13.3698 772.141 14.3105V18.3281C772.141 19.2689 772.152 20.0934 772.174 20.8018C772.196 21.499 772.229 22.1022 772.273 22.6113C772.318 23.1204 772.368 23.5465 772.423 23.8896C772.478 24.2327 772.539 24.5205 772.606 24.7529V24.8193H768.771V24.7529C768.837 24.5205 768.898 24.2327 768.953 23.8896C769.02 23.5465 769.069 23.1204 769.103 22.6113C769.147 22.1022 769.18 21.499 769.202 20.8018C769.235 20.0934 769.252 19.2689 769.252 18.3281V14.3105ZM768.903 2.78906C768.903 2.54557 768.948 2.31868 769.036 2.1084C769.136 1.88704 769.263 1.69889 769.418 1.54395C769.573 1.37793 769.756 1.25065 769.966 1.16211C770.187 1.0625 770.425 1.0127 770.68 1.0127C770.934 1.0127 771.167 1.0625 771.377 1.16211C771.598 1.25065 771.787 1.37793 771.941 1.54395C772.107 1.69889 772.235 1.88704 772.323 2.1084C772.423 2.31868 772.473 2.54557 772.473 2.78906C772.473 3.29818 772.301 3.72428 771.958 4.06738C771.615 4.41048 771.189 4.58203 770.68 4.58203C770.425 4.58203 770.187 4.53776 769.966 4.44922C769.756 4.34961 769.573 4.22233 769.418 4.06738C769.263 3.90137 769.136 3.71322 769.036 3.50293C768.948 3.28158 768.903 3.04362 768.903 2.78906ZM783.334 7.81934V7.88574C783.312 7.94108 783.295 8.02409 783.284 8.13477C783.273 8.24544 783.268 8.34505 783.268 8.43359C783.268 8.77669 783.318 9.15853 783.417 9.5791C783.517 9.98861 783.694 10.5033 783.948 11.123L787.916 20.5693L791.934 11.2559C792.1 10.8464 792.277 10.3981 792.465 9.91113C792.653 9.42415 792.747 8.93164 792.747 8.43359C792.747 8.28971 792.736 8.1735 792.714 8.08496C792.692 7.98535 792.67 7.91895 792.648 7.88574V7.81934H795.636V7.88574C795.437 8.09603 795.182 8.47233 794.872 9.01465C794.573 9.5459 794.252 10.2155 793.909 11.0234L787.783 25.0518H786.804L781.126 11.8369C780.927 11.3499 780.711 10.8851 780.479 10.4424C780.257 9.98861 780.041 9.58464 779.831 9.23047C779.632 8.8763 779.455 8.58301 779.3 8.35059C779.145 8.1071 779.04 7.95215 778.984 7.88574V7.81934H783.334ZM809.834 25.1182C808.606 25.1182 807.455 24.9245 806.381 24.5371C805.307 24.1497 804.372 23.5853 803.575 22.8438C802.779 22.0911 802.148 21.167 801.683 20.0713C801.229 18.9645 801.002 17.7028 801.002 16.2861C801.002 15.0355 801.212 13.8789 801.633 12.8164C802.054 11.7428 802.635 10.8132 803.376 10.0273C804.118 9.24154 804.981 8.62728 805.966 8.18457C806.962 7.74186 808.036 7.52051 809.187 7.52051C810.327 7.52051 811.384 7.71973 812.358 8.11816C813.332 8.50553 814.173 9.07552 814.881 9.82812C815.6 10.5697 816.165 11.4938 816.574 12.6006C816.995 13.6963 817.222 14.9469 817.255 16.3525C816.004 16.3304 814.754 16.3138 813.503 16.3027C812.252 16.2917 810.952 16.2861 809.602 16.2861C808.639 16.2861 807.698 16.2917 806.779 16.3027C805.872 16.3138 805.053 16.3304 804.322 16.3525C804.389 17.5036 804.566 18.5439 804.854 19.4736C805.153 20.4033 805.556 21.2002 806.066 21.8643C806.586 22.5173 807.211 23.0208 807.942 23.375C808.683 23.7292 809.519 23.9062 810.448 23.9062C811.09 23.9062 811.694 23.8343 812.258 23.6904C812.834 23.5355 813.354 23.3252 813.819 23.0596C814.283 22.7939 814.698 22.484 815.064 22.1299C815.429 21.7646 815.739 21.3717 815.993 20.9512L816.193 21.0508L814.964 24.0059C814.366 24.3158 813.653 24.5814 812.822 24.8027C811.992 25.013 810.996 25.1182 809.834 25.1182ZM807.626 14.9912C808.733 14.9912 809.84 14.9912 810.946 14.9912C812.064 14.9801 813.077 14.958 813.985 14.9248C813.885 13.9619 813.697 13.0986 813.42 12.335C813.143 11.5713 812.789 10.9238 812.358 10.3926C811.926 9.86133 811.417 9.45182 810.83 9.16406C810.244 8.8763 809.596 8.73242 808.888 8.73242C808.246 8.73242 807.654 8.8763 807.112 9.16406C806.58 9.44076 806.115 9.84473 805.717 10.376C805.319 10.9072 804.998 11.5602 804.754 12.335C804.511 13.0986 804.367 13.973 804.322 14.958C804.82 14.9801 805.346 14.9912 805.9 14.9912C806.453 14.9912 807.029 14.9912 807.626 14.9912Z" fill="black"/>
</svg>
