<svg width="303" height="28" viewBox="0 0 303 28" fill="none" xmlns="http://www.w3.org/2000/svg">
<path d="M0 20.6035C0.0546875 20.4121 0.104818 20.1751 0.150391 19.8926C0.205078 19.61 0.250651 19.2591 0.287109 18.8398C0.323568 18.4206 0.350911 17.9238 0.369141 17.3496C0.38737 16.7663 0.396484 16.0872 0.396484 15.3125V6.41211C0.396484 5.63737 0.38737 4.96289 0.369141 4.38867C0.350911 3.80534 0.323568 3.30404 0.287109 2.88477C0.250651 2.45638 0.205078 2.10091 0.150391 1.81836C0.104818 1.53581 0.0546875 1.29883 0 1.10742V1.05273H3.28125V1.10742C3.22656 1.29883 3.17188 1.53581 3.11719 1.81836C3.07161 2.10091 3.0306 2.45638 2.99414 2.88477C2.9668 3.30404 2.93945 3.80534 2.91211 4.38867C2.89388 4.96289 2.88477 5.63737 2.88477 6.41211V9.46094L10.8691 2.93945C11.7624 2.21029 12.209 1.58138 12.209 1.05273H16.0508V1.10742C15.513 1.23503 14.9661 1.48112 14.4102 1.8457C13.8633 2.20117 13.2799 2.63867 12.6602 3.1582L5.60547 9.06445L14.0957 18.3887C14.4512 18.7533 14.752 19.0586 14.998 19.3047C15.2533 19.5417 15.4766 19.7422 15.668 19.9062C15.8594 20.0612 16.0326 20.1934 16.1875 20.3027C16.3516 20.403 16.5202 20.5033 16.6934 20.6035V20.6582H12.6875C12.651 20.5762 12.5872 20.4714 12.4961 20.3438C12.4141 20.2161 12.3138 20.084 12.1953 19.9473C12.0859 19.8105 11.9629 19.6693 11.8262 19.5234C11.6986 19.3776 11.5755 19.2409 11.457 19.1133L2.88477 9.70703V15.3125C2.88477 16.0872 2.89388 16.7663 2.91211 17.3496C2.93945 17.9238 2.9668 18.4206 2.99414 18.8398C3.0306 19.2591 3.07161 19.61 3.11719 19.8926C3.17188 20.1751 3.22656 20.4121 3.28125 20.6035V20.6582H0V20.6035ZM21.974 12.0039C21.974 11.2292 21.9603 10.5547 21.933 9.98047C21.9147 9.39714 21.8874 8.89583 21.8509 8.47656C21.8236 8.05729 21.7826 7.70638 21.7279 7.42383C21.6823 7.14128 21.6322 6.9043 21.5775 6.71289V6.6582H24.7357V6.71289C24.681 6.9043 24.6309 7.14128 24.5853 7.42383C24.5397 7.70638 24.4987 8.05729 24.4623 8.47656C24.4258 8.89583 24.3985 9.39714 24.3802 9.98047C24.362 10.5547 24.3529 11.2292 24.3529 12.0039V15.3125C24.3529 16.0872 24.362 16.7663 24.3802 17.3496C24.3985 17.9238 24.4258 18.4206 24.4623 18.8398C24.4987 19.2591 24.5397 19.61 24.5853 19.8926C24.6309 20.1751 24.681 20.4121 24.7357 20.6035V20.6582H21.5775V20.6035C21.6322 20.4121 21.6823 20.1751 21.7279 19.8926C21.7826 19.61 21.8236 19.2591 21.8509 18.8398C21.8874 18.4206 21.9147 17.9238 21.933 17.3496C21.9603 16.7663 21.974 16.0872 21.974 15.3125V12.0039ZM21.6869 2.51562C21.6869 2.3151 21.7233 2.12826 21.7962 1.95508C21.8783 1.77279 21.9831 1.61784 22.1107 1.49023C22.2383 1.35352 22.3887 1.2487 22.5619 1.17578C22.7442 1.09375 22.9401 1.05273 23.1498 1.05273C23.3594 1.05273 23.5508 1.09375 23.724 1.17578C23.9063 1.2487 24.0612 1.35352 24.1888 1.49023C24.3255 1.61784 24.4304 1.77279 24.5033 1.95508C24.5853 2.12826 24.6263 2.3151 24.6263 2.51562C24.6263 2.9349 24.4851 3.28581 24.2025 3.56836C23.9199 3.85091 23.569 3.99219 23.1498 3.99219C22.9401 3.99219 22.7442 3.95573 22.5619 3.88281C22.3887 3.80078 22.2383 3.69596 22.1107 3.56836C21.9831 3.43164 21.8783 3.27669 21.7962 3.10352C21.7233 2.92122 21.6869 2.72526 21.6869 2.51562ZM32.3679 5.56445C32.3679 4.78971 32.3542 4.11523 32.3269 3.54102C32.3086 2.95768 32.2813 2.45638 32.2448 2.03711C32.2175 1.61784 32.1765 1.26693 32.1218 0.984375C32.0762 0.701823 32.0261 0.464844 31.9714 0.273438V0.21875H35.1296V0.273438C35.0749 0.464844 35.0248 0.701823 34.9792 0.984375C34.9336 1.26693 34.8926 1.61784 34.8562 2.03711C34.8197 2.45638 34.7924 2.95768 34.7741 3.54102C34.7559 4.11523 34.7468 4.78971 34.7468 5.56445V15.3125C34.7468 16.0872 34.7559 16.7663 34.7741 17.3496C34.7924 17.9238 34.8197 18.4206 34.8562 18.8398C34.8926 19.2591 34.9336 19.61 34.9792 19.8926C35.0248 20.1751 35.0749 20.4121 35.1296 20.6035V20.6582H31.9714V20.6035C32.0261 20.4121 32.0762 20.1751 32.1218 19.8926C32.1765 19.61 32.2175 19.2591 32.2448 18.8398C32.2813 18.4206 32.3086 17.9238 32.3269 17.3496C32.3542 16.7663 32.3679 16.0872 32.3679 15.3125V5.56445ZM54.0411 17.7461L53.0294 20.1797C52.7833 20.2891 52.5007 20.3893 52.1817 20.4805C51.8627 20.5716 51.53 20.6491 51.1837 20.7129C50.8464 20.7767 50.5046 20.8223 50.1583 20.8496C49.8119 20.8861 49.4838 20.9043 49.1739 20.9043C48.071 20.9043 47.0502 20.7448 46.1114 20.4258C45.1817 20.0977 44.3751 19.6237 43.6915 19.0039C43.017 18.3841 42.4884 17.623 42.1055 16.7207C41.7227 15.8184 41.5313 14.7884 41.5313 13.6309C41.5313 12.6009 41.7273 11.6484 42.1192 10.7734C42.5203 9.88932 43.0717 9.1237 43.7735 8.47656C44.4845 7.82943 45.3184 7.32357 46.2755 6.95898C47.2325 6.5944 48.2716 6.41211 49.3927 6.41211C49.9031 6.41211 50.4499 6.45768 51.0333 6.54883C51.6166 6.63086 52.1361 6.74023 52.5919 6.87695L53.5626 9.20117L53.3985 9.29688C53.1707 9.01432 52.8972 8.75911 52.5782 8.53125C52.2683 8.29427 51.922 8.09375 51.5391 7.92969C51.1654 7.76562 50.769 7.63802 50.3497 7.54688C49.9304 7.45573 49.502 7.41016 49.0645 7.41016C48.3536 7.41016 47.7065 7.53776 47.1231 7.79297C46.5398 8.03906 46.0385 8.39909 45.6192 8.87305C45.1999 9.34701 44.8718 9.93034 44.6348 10.623C44.407 11.3066 44.293 12.0859 44.293 12.9609C44.293 13.9453 44.4024 14.8613 44.6212 15.709C44.849 16.5566 45.1817 17.2949 45.6192 17.9238C46.0658 18.5436 46.6218 19.0312 47.2872 19.3867C47.9617 19.7331 48.7501 19.9062 49.6524 19.9062C50.0717 19.9062 50.4864 19.8561 50.8966 19.7559C51.3158 19.6465 51.7078 19.4961 52.0723 19.3047C52.446 19.1042 52.7878 18.8672 53.0977 18.5938C53.4076 18.3203 53.6674 18.0104 53.877 17.6641L54.0411 17.7461ZM69.8627 11.4434C69.8627 10.2402 69.6212 9.35612 69.1381 8.79102C68.6551 8.22591 68.0079 7.94336 67.1967 7.94336C66.8959 7.94336 66.5587 8.00716 66.185 8.13477C65.8204 8.25326 65.4422 8.41732 65.0502 8.62695C64.6674 8.83659 64.2846 9.08268 63.9018 9.36523C63.519 9.63867 63.1635 9.93034 62.8354 10.2402V15.3125C62.8354 16.0872 62.8445 16.7663 62.8627 17.3496C62.881 17.9238 62.9083 18.4206 62.9448 18.8398C62.9812 19.2591 63.0222 19.61 63.0678 19.8926C63.1134 20.1751 63.1635 20.4121 63.2182 20.6035V20.6582H60.06V20.6035C60.1147 20.4121 60.1648 20.1751 60.2104 19.8926C60.2651 19.61 60.3061 19.2591 60.3334 18.8398C60.3699 18.4206 60.3972 17.9238 60.4155 17.3496C60.4428 16.7663 60.4565 16.0872 60.4565 15.3125V5.56445C60.4565 4.78971 60.4428 4.11523 60.4155 3.54102C60.3972 2.95768 60.3699 2.45638 60.3334 2.03711C60.3061 1.61784 60.2651 1.26693 60.2104 0.984375C60.1648 0.701823 60.1147 0.464844 60.06 0.273438V0.21875H63.2182V0.273438C63.1635 0.464844 63.1134 0.701823 63.0678 0.984375C63.0222 1.26693 62.9812 1.61784 62.9448 2.03711C62.9083 2.45638 62.881 2.95768 62.8627 3.54102C62.8445 4.11523 62.8354 4.78971 62.8354 5.56445V9.06445C63.2 8.73633 63.601 8.41276 64.0385 8.09375C64.4851 7.77474 64.9454 7.48763 65.4194 7.23242C65.8933 6.97721 66.3764 6.77214 66.8686 6.61719C67.3608 6.46224 67.8439 6.38477 68.3178 6.38477C69.0288 6.38477 69.6303 6.50781 70.1225 6.75391C70.6238 7 71.0294 7.32357 71.3393 7.72461C71.6583 8.12565 71.8862 8.58594 72.0229 9.10547C72.1687 9.61589 72.2416 10.1354 72.2416 10.6641V15.3125C72.2416 16.0872 72.2508 16.7663 72.269 17.3496C72.2872 17.9238 72.3146 18.4206 72.351 18.8398C72.3875 19.2591 72.4285 19.61 72.4741 19.8926C72.5196 20.1751 72.5698 20.4121 72.6245 20.6035V20.6582H69.4663V20.6035C69.5209 20.4121 69.5711 20.1751 69.6166 19.8926C69.6713 19.61 69.7123 19.2591 69.7397 18.8398C69.7761 18.4206 69.8035 17.9238 69.8217 17.3496C69.8491 16.7663 69.8627 16.0872 69.8627 15.3125V11.4434ZM82.3895 7.35547C82.9637 7.04557 83.5789 6.81315 84.2352 6.6582C84.8914 6.49414 85.5613 6.41211 86.2449 6.41211C87.2566 6.41211 88.1909 6.58529 89.0477 6.93164C89.9135 7.26888 90.6609 7.75195 91.2898 8.38086C91.9187 9.00977 92.4109 9.77539 92.7664 10.6777C93.1219 11.5801 93.2996 12.5918 93.2996 13.7129C93.2996 14.6517 93.1355 15.554 92.8074 16.4199C92.4884 17.2858 92.0053 18.0514 91.3582 18.7168C90.7202 19.3822 89.9227 19.9154 88.9656 20.3164C88.0177 20.7083 86.9148 20.9043 85.657 20.9043C85.5112 20.9043 85.3152 20.8997 85.0691 20.8906C84.8322 20.8815 84.5678 20.8633 84.2762 20.8359C83.9845 20.8086 83.6746 20.7721 83.3465 20.7266C83.0184 20.681 82.6993 20.6217 82.3895 20.5488C81.952 20.4486 81.5099 20.3392 81.0633 20.2207C80.6258 20.0931 80.2065 19.9518 79.8055 19.7969C79.8419 19.6602 79.8738 19.4323 79.9012 19.1133C79.9285 18.7852 79.9467 18.4342 79.9559 18.0605C79.9741 17.6868 79.9878 17.3223 79.9969 16.9668C80.006 16.6022 80.0105 16.3105 80.0105 16.0918V5.56445C80.0105 4.78971 79.9969 4.11523 79.9695 3.54102C79.9513 2.95768 79.924 2.45638 79.8875 2.03711C79.8602 1.61784 79.8191 1.26693 79.7645 0.984375C79.7189 0.701823 79.6687 0.464844 79.6141 0.273438V0.21875H82.7723V0.273438C82.7176 0.464844 82.6674 0.701823 82.6219 0.984375C82.5763 1.26693 82.5353 1.61784 82.4988 2.03711C82.4624 2.45638 82.435 2.95768 82.4168 3.54102C82.3986 4.11523 82.3895 4.78971 82.3895 5.56445V7.35547ZM82.3895 15.873C82.3895 16.6113 82.394 17.222 82.4031 17.7051C82.4214 18.1882 82.4441 18.5755 82.4715 18.8672C82.8543 19.1589 83.3738 19.4049 84.0301 19.6055C84.6863 19.806 85.4064 19.9062 86.1902 19.9062C86.8374 19.9062 87.4298 19.7786 87.9676 19.5234C88.5053 19.2682 88.9656 18.8991 89.3484 18.416C89.7312 17.9329 90.0275 17.3451 90.2371 16.6523C90.4559 15.9596 90.5652 15.1758 90.5652 14.3008C90.5652 13.3164 90.4741 12.4049 90.2918 11.5664C90.1095 10.7188 89.827 9.98958 89.4441 9.37891C89.0613 8.75911 88.5737 8.27604 87.9812 7.92969C87.3888 7.58333 86.6824 7.41016 85.8621 7.41016C85.1694 7.41016 84.5223 7.55143 83.9207 7.83398C83.3191 8.11654 82.8087 8.52669 82.3895 9.06445V15.873ZM106.127 20.9043C105.115 20.9043 104.167 20.7448 103.283 20.4258C102.399 20.1068 101.629 19.6419 100.973 19.0312C100.317 18.4115 99.797 17.6504 99.4142 16.748C99.0405 15.8366 98.8537 14.7975 98.8537 13.6309C98.8537 12.6009 99.0269 11.6484 99.3732 10.7734C99.7196 9.88932 100.198 9.1237 100.809 8.47656C101.419 7.82943 102.13 7.32357 102.942 6.95898C103.762 6.5944 104.646 6.41211 105.594 6.41211C106.533 6.41211 107.403 6.57617 108.205 6.9043C109.007 7.22331 109.7 7.69271 110.283 8.3125C110.876 8.92318 111.341 9.68424 111.678 10.5957C112.024 11.498 112.211 12.528 112.238 13.6855C111.208 13.6673 110.179 13.6536 109.149 13.6445C108.119 13.6354 107.048 13.6309 105.936 13.6309C105.143 13.6309 104.368 13.6354 103.611 13.6445C102.864 13.6536 102.19 13.6673 101.588 13.6855C101.643 14.6335 101.789 15.4902 102.026 16.2559C102.272 17.0215 102.604 17.6777 103.024 18.2246C103.452 18.7624 103.967 19.1771 104.569 19.4688C105.179 19.7604 105.867 19.9062 106.633 19.9062C107.162 19.9062 107.658 19.847 108.123 19.7285C108.597 19.6009 109.026 19.4277 109.408 19.209C109.791 18.9902 110.133 18.735 110.434 18.4434C110.735 18.1426 110.99 17.819 111.199 17.4727L111.363 17.5547L110.352 19.9883C109.86 20.2435 109.272 20.4622 108.588 20.6445C107.904 20.8177 107.084 20.9043 106.127 20.9043ZM104.309 12.5645C105.22 12.5645 106.132 12.5645 107.043 12.5645C107.964 12.5553 108.798 12.5371 109.545 12.5098C109.463 11.7168 109.308 11.0059 109.08 10.377C108.852 9.74805 108.561 9.21484 108.205 8.77734C107.85 8.33984 107.43 8.0026 106.947 7.76562C106.464 7.52865 105.931 7.41016 105.348 7.41016C104.819 7.41016 104.332 7.52865 103.885 7.76562C103.447 7.99349 103.065 8.32617 102.736 8.76367C102.408 9.20117 102.144 9.73893 101.944 10.377C101.743 11.0059 101.625 11.7259 101.588 12.5371C101.998 12.5553 102.431 12.5645 102.887 12.5645C103.343 12.5645 103.817 12.5645 104.309 12.5645ZM118.818 12.0039C118.818 11.2292 118.804 10.5547 118.777 9.98047C118.759 9.39714 118.731 8.89583 118.695 8.47656C118.668 8.05729 118.626 7.70638 118.572 7.42383C118.526 7.14128 118.476 6.9043 118.421 6.71289V6.6582H121.58V6.71289C121.507 6.92253 121.443 7.17773 121.388 7.47852C121.343 7.7793 121.306 8.16667 121.279 8.64062C121.616 8.35807 121.967 8.08008 122.332 7.80664C122.696 7.5332 123.07 7.29167 123.453 7.08203C123.835 6.8724 124.223 6.70378 124.615 6.57617C125.016 6.44857 125.417 6.38477 125.818 6.38477C126.064 6.38477 126.278 6.39844 126.46 6.42578C126.643 6.44401 126.807 6.47591 126.953 6.52148C127.098 6.55794 127.231 6.60352 127.349 6.6582C127.468 6.70378 127.582 6.74935 127.691 6.79492L127.021 9.40625L126.789 9.35156C126.679 8.95052 126.474 8.63151 126.173 8.39453C125.873 8.14844 125.462 8.02539 124.943 8.02539C124.66 8.02539 124.364 8.07552 124.054 8.17578C123.744 8.27604 123.43 8.41732 123.111 8.59961C122.792 8.77279 122.473 8.97786 122.154 9.21484C121.835 9.44271 121.525 9.68424 121.224 9.93945C121.206 10.2038 121.197 10.4909 121.197 10.8008C121.197 11.1107 121.197 11.4388 121.197 11.7852V15.3125C121.197 16.0872 121.206 16.7663 121.224 17.3496C121.242 17.9238 121.27 18.4206 121.306 18.8398C121.343 19.2591 121.384 19.61 121.429 19.8926C121.475 20.1751 121.525 20.4121 121.58 20.6035V20.6582H118.421V20.6035C118.476 20.4121 118.526 20.1751 118.572 19.8926C118.626 19.61 118.668 19.2591 118.695 18.8398C118.731 18.4206 118.759 17.9238 118.777 17.3496C118.804 16.7663 118.818 16.0872 118.818 15.3125V12.0039ZM138.741 26.9062C139.479 26.9062 140.104 26.8242 140.614 26.6602C141.125 26.5052 141.544 26.2865 141.872 26.0039C142.209 25.7214 142.464 25.3796 142.638 24.9785C142.82 24.5866 142.952 24.1536 143.034 23.6797C143.125 23.2057 143.175 22.6999 143.184 22.1621C143.203 21.6243 143.212 21.0684 143.212 20.4941V20.043C142.765 20.2799 142.227 20.485 141.599 20.6582C140.97 20.8223 140.259 20.9043 139.466 20.9043C138.381 20.9043 137.397 20.7357 136.513 20.3984C135.628 20.0612 134.872 19.5781 134.243 18.9492C133.623 18.3203 133.145 17.5592 132.807 16.666C132.47 15.7637 132.302 14.752 132.302 13.6309C132.302 12.6009 132.466 11.6439 132.794 10.7598C133.131 9.87565 133.6 9.11003 134.202 8.46289C134.813 7.81576 135.537 7.3099 136.376 6.94531C137.224 6.57161 138.158 6.38477 139.179 6.38477C139.616 6.38477 140.017 6.42122 140.382 6.49414C140.746 6.56706 141.084 6.66732 141.393 6.79492C141.712 6.91341 142.009 7.05469 142.282 7.21875C142.565 7.3737 142.838 7.54232 143.102 7.72461L142.966 6.71289V6.6582H145.987V6.71289C145.932 6.9043 145.878 7.14128 145.823 7.42383C145.778 7.70638 145.737 8.05729 145.7 8.47656C145.673 8.89583 145.645 9.39714 145.618 9.98047C145.6 10.5547 145.591 11.2292 145.591 12.0039V21.3008C145.591 22.1393 145.477 22.9551 145.249 23.748C145.03 24.5501 144.652 25.2611 144.114 25.8809C143.585 26.5007 142.884 26.9974 142.009 27.3711C141.134 27.7448 140.044 27.9316 138.741 27.9316C138.285 27.9316 137.825 27.8861 137.36 27.7949C136.895 27.7129 136.453 27.6081 136.034 27.4805C135.615 27.362 135.237 27.2298 134.899 27.084C134.562 26.9382 134.293 26.8105 134.093 26.7012L133.669 24.0762L133.888 24.0215C134.106 24.4954 134.403 24.9102 134.776 25.2656C135.159 25.6302 135.574 25.931 136.02 26.168C136.467 26.4141 136.927 26.5964 137.401 26.7148C137.884 26.8424 138.331 26.9062 138.741 26.9062ZM140.081 19.9062C140.737 19.9062 141.33 19.7969 141.858 19.5781C142.396 19.3594 142.847 19.1042 143.212 18.8125V12.0039C143.212 11.4935 143.207 11.0332 143.198 10.623C143.189 10.2038 143.184 9.82552 143.184 9.48828C142.966 9.15104 142.71 8.85482 142.419 8.59961C142.136 8.33529 141.831 8.11654 141.503 7.94336C141.184 7.76107 140.856 7.62435 140.518 7.5332C140.181 7.43294 139.849 7.38281 139.52 7.38281C138.828 7.38281 138.203 7.51042 137.647 7.76562C137.091 8.02083 136.617 8.38997 136.225 8.87305C135.843 9.34701 135.546 9.93034 135.337 10.623C135.136 11.3066 135.036 12.0859 135.036 12.9609C135.036 13.9453 135.145 14.8613 135.364 15.709C135.583 16.5566 135.902 17.2949 136.321 17.9238C136.75 18.5436 137.278 19.0312 137.907 19.3867C138.536 19.7331 139.261 19.9062 140.081 19.9062ZM164.492 14.4102V12.4551H173.734V14.4102H164.492ZM197.694 1.08008C197.466 1.08008 197.22 1.12109 196.955 1.20312C196.7 1.28516 196.463 1.43555 196.244 1.6543C196.026 1.87305 195.843 2.17839 195.698 2.57031C195.552 2.95312 195.479 3.44987 195.479 4.06055V6.6582C195.962 6.64909 196.413 6.63542 196.832 6.61719C197.261 6.59896 197.644 6.58073 197.981 6.5625C198.318 6.54427 198.601 6.52604 198.828 6.50781C199.056 6.48047 199.22 6.45768 199.321 6.43945L199.075 7.83398C198.756 7.82487 198.409 7.8112 198.035 7.79297C197.716 7.77474 197.338 7.76107 196.901 7.75195C196.463 7.74284 195.989 7.73372 195.479 7.72461V15.3125C195.479 16.0872 195.488 16.7663 195.506 17.3496C195.534 17.9238 195.561 18.4206 195.588 18.8398C195.625 19.2591 195.666 19.61 195.711 19.8926C195.766 20.1751 195.821 20.4121 195.875 20.6035V20.6582H192.717V20.6035C192.772 20.4121 192.822 20.1751 192.868 19.8926C192.913 19.61 192.954 19.2591 192.991 18.8398C193.027 18.4206 193.054 17.9238 193.073 17.3496C193.091 16.7663 193.1 16.0872 193.1 15.3125V7.72461L190.803 7.80664V6.60352C191.086 6.62174 191.423 6.63542 191.815 6.64453C192.207 6.65365 192.635 6.6582 193.1 6.6582V4.36133C193.1 3.65951 193.2 3.03971 193.401 2.50195C193.61 1.95508 193.897 1.49935 194.262 1.13477C194.627 0.761068 195.064 0.478516 195.575 0.287109C196.085 0.0957031 196.646 0 197.256 0C197.593 0 197.908 0.0227865 198.2 0.0683594C198.491 0.113932 198.751 0.16862 198.979 0.232422C199.216 0.296224 199.421 0.364583 199.594 0.4375C199.776 0.501302 199.927 0.560547 200.045 0.615234L200.578 2.9668L200.414 3.04883C200.269 2.83008 200.109 2.60677 199.936 2.37891C199.763 2.14193 199.567 1.92773 199.348 1.73633C199.129 1.54492 198.883 1.38997 198.61 1.27148C198.345 1.14388 198.04 1.08008 197.694 1.08008ZM203.877 16.625C203.877 15.9049 204.022 15.2806 204.314 14.752C204.615 14.2233 205.011 13.7721 205.504 13.3984C205.996 13.0247 206.556 12.724 207.185 12.4961C207.814 12.2591 208.466 12.0768 209.14 11.9492C209.815 11.8125 210.48 11.7214 211.136 11.6758C211.793 11.6211 212.394 11.5892 212.941 11.5801V10.8828C212.941 10.2812 212.864 9.76172 212.709 9.32422C212.554 8.88672 212.335 8.52669 212.052 8.24414C211.77 7.95247 211.428 7.73828 211.027 7.60156C210.635 7.45573 210.202 7.38281 209.728 7.38281C209.4 7.38281 209.077 7.41016 208.758 7.46484C208.438 7.51953 208.106 7.61068 207.759 7.73828C207.422 7.86589 207.062 8.03906 206.679 8.25781C206.306 8.47656 205.9 8.75456 205.463 9.0918L205.326 9.00977L206.256 7.08203C206.556 6.94531 206.853 6.83594 207.144 6.75391C207.436 6.66276 207.732 6.58984 208.033 6.53516C208.334 6.48047 208.639 6.44401 208.949 6.42578C209.268 6.39844 209.601 6.38477 209.947 6.38477C210.904 6.38477 211.72 6.50326 212.394 6.74023C213.078 6.9681 213.634 7.28711 214.062 7.69727C214.5 8.09831 214.819 8.57227 215.019 9.11914C215.22 9.6569 215.32 10.2357 215.32 10.8555V15.3125C215.32 16.0872 215.329 16.7663 215.347 17.3496C215.375 17.9238 215.402 18.4206 215.429 18.8398C215.466 19.2591 215.507 19.61 215.552 19.8926C215.607 20.1751 215.662 20.4121 215.716 20.6035V20.6582H212.695V20.6035C212.741 20.4577 212.772 20.2936 212.791 20.1113C212.818 19.929 212.841 19.7103 212.859 19.4551C212.668 19.6191 212.44 19.7878 212.175 19.9609C211.92 20.1341 211.624 20.2936 211.287 20.4395C210.959 20.5762 210.59 20.6855 210.179 20.7676C209.778 20.8587 209.336 20.9043 208.853 20.9043C207.267 20.9043 206.041 20.5352 205.175 19.7969C204.31 19.0495 203.877 17.9922 203.877 16.625ZM212.941 12.6465C212.112 12.6556 211.314 12.7057 210.549 12.7969C209.783 12.8789 209.104 13.0566 208.511 13.3301C207.928 13.6035 207.459 13.9954 207.103 14.5059C206.757 15.0072 206.584 15.6771 206.584 16.5156C206.584 17.5911 206.853 18.4115 207.39 18.9766C207.928 19.5417 208.671 19.8242 209.619 19.8242C210.056 19.8242 210.453 19.765 210.808 19.6465C211.173 19.5189 211.492 19.3639 211.765 19.1816C212.048 18.9902 212.285 18.7852 212.476 18.5664C212.668 18.3385 212.813 18.1198 212.914 17.9102C212.932 17.5638 212.941 17.181 212.941 16.7617C212.941 16.3333 212.941 15.8503 212.941 15.3125V12.6465ZM234.464 17.7461L233.452 20.1797C233.206 20.2891 232.924 20.3893 232.605 20.4805C232.286 20.5716 231.953 20.6491 231.606 20.7129C231.269 20.7767 230.927 20.8223 230.581 20.8496C230.235 20.8861 229.907 20.9043 229.597 20.9043C228.494 20.9043 227.473 20.7448 226.534 20.4258C225.605 20.0977 224.798 19.6237 224.114 19.0039C223.44 18.3841 222.911 17.623 222.528 16.7207C222.146 15.8184 221.954 14.7884 221.954 13.6309C221.954 12.6009 222.15 11.6484 222.542 10.7734C222.943 9.88932 223.495 9.1237 224.196 8.47656C224.907 7.82943 225.741 7.32357 226.698 6.95898C227.655 6.5944 228.694 6.41211 229.815 6.41211C230.326 6.41211 230.873 6.45768 231.456 6.54883C232.039 6.63086 232.559 6.74023 233.015 6.87695L233.985 9.20117L233.821 9.29688C233.593 9.01432 233.32 8.75911 233.001 8.53125C232.691 8.29427 232.345 8.09375 231.962 7.92969C231.588 7.76562 231.192 7.63802 230.773 7.54688C230.353 7.45573 229.925 7.41016 229.487 7.41016C228.776 7.41016 228.129 7.53776 227.546 7.79297C226.963 8.03906 226.461 8.39909 226.042 8.87305C225.623 9.34701 225.295 9.93034 225.058 10.623C224.83 11.3066 224.716 12.0859 224.716 12.9609C224.716 13.9453 224.825 14.8613 225.044 15.709C225.272 16.5566 225.605 17.2949 226.042 17.9238C226.489 18.5436 227.045 19.0312 227.71 19.3867C228.384 19.7331 229.173 19.9062 230.075 19.9062C230.495 19.9062 230.909 19.8561 231.319 19.7559C231.739 19.6465 232.131 19.4961 232.495 19.3047C232.869 19.1042 233.211 18.8672 233.521 18.5938C233.83 18.3203 234.09 18.0104 234.3 17.6641L234.464 17.7461ZM245.829 19.8516C246.102 19.8516 246.371 19.8014 246.635 19.7012C246.909 19.6009 247.168 19.4642 247.414 19.291C247.67 19.1178 247.911 18.9219 248.139 18.7031C248.376 18.4753 248.595 18.2383 248.795 17.9922L248.932 18.0605L248.043 20.2617C247.934 20.3164 247.797 20.3848 247.633 20.4668C247.478 20.5397 247.287 20.6081 247.059 20.6719C246.84 20.7448 246.58 20.804 246.28 20.8496C245.979 20.9043 245.623 20.9316 245.213 20.9316C243.992 20.9316 243.039 20.6035 242.356 19.9473C241.681 19.2819 241.344 18.2474 241.344 16.8438V7.72461L239.047 7.80664V6.60352C239.33 6.62174 239.667 6.63542 240.059 6.64453C240.451 6.65365 240.879 6.6582 241.344 6.6582C241.335 6.01107 241.317 5.44141 241.289 4.94922C241.271 4.44792 241.244 4.01497 241.207 3.65039C241.18 3.27669 241.144 2.96224 241.098 2.70703C241.052 2.45182 241.007 2.23763 240.961 2.06445V2.00977H244.12V2.06445C244.065 2.23763 244.015 2.45182 243.969 2.70703C243.924 2.96224 243.883 3.27214 243.846 3.63672C243.819 4.0013 243.791 4.43424 243.764 4.93555C243.746 5.42773 243.732 6.00195 243.723 6.6582C244.297 6.64909 244.858 6.63997 245.405 6.63086C245.961 6.61263 246.462 6.5944 246.909 6.57617C247.364 6.54883 247.747 6.52604 248.057 6.50781C248.376 6.48047 248.586 6.45768 248.686 6.43945L248.44 7.83398C247.975 7.82487 247.487 7.8112 246.977 7.79297C246.539 7.77474 246.038 7.76107 245.473 7.75195C244.908 7.74284 244.325 7.73372 243.723 7.72461V17.1309C243.723 17.696 243.782 18.1562 243.901 18.5117C244.028 18.8581 244.188 19.1315 244.379 19.332C244.58 19.5326 244.803 19.6693 245.049 19.7422C245.304 19.8151 245.564 19.8516 245.829 19.8516ZM254.117 13.6309C254.117 12.6009 254.308 11.6484 254.691 10.7734C255.074 9.88932 255.598 9.1237 256.263 8.47656C256.938 7.82943 257.731 7.32357 258.642 6.95898C259.554 6.5944 260.534 6.41211 261.582 6.41211C262.612 6.41211 263.578 6.58529 264.48 6.93164C265.392 7.26888 266.185 7.75195 266.859 8.38086C267.534 9.00977 268.062 9.77539 268.445 10.6777C268.837 11.5801 269.033 12.5918 269.033 13.7129C269.033 14.6517 268.869 15.554 268.541 16.4199C268.213 17.2858 267.73 18.0514 267.092 18.7168C266.454 19.3822 265.67 19.9154 264.74 20.3164C263.819 20.7083 262.758 20.9043 261.554 20.9043C260.534 20.9043 259.572 20.7357 258.67 20.3984C257.767 20.0612 256.979 19.5781 256.304 18.9492C255.63 18.3203 255.097 17.5592 254.705 16.666C254.313 15.7637 254.117 14.752 254.117 13.6309ZM261.869 19.9062C262.516 19.9062 263.108 19.7786 263.646 19.5234C264.193 19.2682 264.663 18.8991 265.054 18.416C265.446 17.9329 265.752 17.3451 265.97 16.6523C266.189 15.9596 266.299 15.1758 266.299 14.3008C266.299 13.3164 266.194 12.4049 265.984 11.5664C265.775 10.7188 265.46 9.98958 265.041 9.37891C264.631 8.75911 264.111 8.27604 263.482 7.92969C262.853 7.58333 262.12 7.41016 261.281 7.41016C260.634 7.41016 260.041 7.53776 259.504 7.79297C258.966 8.03906 258.497 8.39909 258.095 8.87305C257.704 9.34701 257.398 9.93034 257.179 10.623C256.961 11.3066 256.851 12.0859 256.851 12.9609C256.851 13.9453 256.956 14.8613 257.166 15.709C257.385 16.5566 257.704 17.2949 258.123 17.9238C258.542 18.5436 259.062 19.0312 259.681 19.3867C260.31 19.7331 261.039 19.9062 261.869 19.9062ZM275.749 12.0039C275.749 11.2292 275.735 10.5547 275.708 9.98047C275.69 9.39714 275.663 8.89583 275.626 8.47656C275.599 8.05729 275.558 7.70638 275.503 7.42383C275.457 7.14128 275.407 6.9043 275.353 6.71289V6.6582H278.511V6.71289C278.438 6.92253 278.374 7.17773 278.319 7.47852C278.274 7.7793 278.237 8.16667 278.21 8.64062C278.547 8.35807 278.898 8.08008 279.263 7.80664C279.627 7.5332 280.001 7.29167 280.384 7.08203C280.767 6.8724 281.154 6.70378 281.546 6.57617C281.947 6.44857 282.348 6.38477 282.749 6.38477C282.995 6.38477 283.209 6.39844 283.392 6.42578C283.574 6.44401 283.738 6.47591 283.884 6.52148C284.03 6.55794 284.162 6.60352 284.28 6.6582C284.399 6.70378 284.513 6.74935 284.622 6.79492L283.952 9.40625L283.72 9.35156C283.61 8.95052 283.405 8.63151 283.105 8.39453C282.804 8.14844 282.394 8.02539 281.874 8.02539C281.592 8.02539 281.295 8.07552 280.985 8.17578C280.676 8.27604 280.361 8.41732 280.042 8.59961C279.723 8.77279 279.404 8.97786 279.085 9.21484C278.766 9.44271 278.456 9.68424 278.155 9.93945C278.137 10.2038 278.128 10.4909 278.128 10.8008C278.128 11.1107 278.128 11.4388 278.128 11.7852V15.3125C278.128 16.0872 278.137 16.7663 278.155 17.3496C278.174 17.9238 278.201 18.4206 278.237 18.8398C278.274 19.2591 278.315 19.61 278.36 19.8926C278.406 20.1751 278.456 20.4121 278.511 20.6035V20.6582H275.353V20.6035C275.407 20.4121 275.457 20.1751 275.503 19.8926C275.558 19.61 275.599 19.2591 275.626 18.8398C275.663 18.4206 275.69 17.9238 275.708 17.3496C275.735 16.7663 275.749 16.0872 275.749 15.3125V12.0039ZM295.043 20.4941L290.231 9.9668C290.058 9.56576 289.871 9.18294 289.67 8.81836C289.47 8.44466 289.278 8.11198 289.096 7.82031C288.923 7.52865 288.768 7.28711 288.631 7.0957C288.495 6.89518 288.403 6.76758 288.358 6.71289V6.6582H291.94V6.71289C291.922 6.75846 291.908 6.82682 291.899 6.91797C291.89 7.00911 291.885 7.09115 291.885 7.16406C291.885 7.44661 291.926 7.76107 292.008 8.10742C292.099 8.44466 292.263 8.86849 292.5 9.37891L296.274 17.582L299.719 9.48828C299.865 9.15104 300.011 8.7819 300.157 8.38086C300.312 7.97982 300.389 7.57422 300.389 7.16406C300.389 7.04557 300.38 6.94987 300.362 6.87695C300.344 6.79492 300.325 6.74023 300.307 6.71289V6.6582H302.768V6.71289C302.604 6.88607 302.394 7.19596 302.139 7.64258C301.893 8.08008 301.629 8.63151 301.346 9.29688L294.825 24.8281C294.679 25.1654 294.528 25.5345 294.374 25.9355C294.228 26.3366 294.155 26.7422 294.155 27.1523C294.155 27.2708 294.164 27.3665 294.182 27.4395C294.2 27.5215 294.219 27.5762 294.237 27.6035V27.6582H291.68V27.6035C291.853 27.4303 292.063 27.125 292.309 26.6875C292.564 26.2591 292.833 25.7168 293.116 25.0605L295.043 20.4941Z" fill="black"/>
</svg>
