<svg width="314" height="28" viewBox="0 0 314 28" fill="none" xmlns="http://www.w3.org/2000/svg">
<path d="M0 20.3848C0.0546875 20.1934 0.104818 19.9564 0.150391 19.6738C0.205078 19.3913 0.250651 19.0404 0.287109 18.6211C0.323568 18.2018 0.350911 17.7051 0.369141 17.1309C0.38737 16.5475 0.396484 15.8685 0.396484 15.0938V6.19336C0.396484 5.41862 0.38737 4.74414 0.369141 4.16992C0.350911 3.58659 0.323568 3.08529 0.287109 2.66602C0.250651 2.23763 0.205078 1.88216 0.150391 1.59961C0.104818 1.31706 0.0546875 1.08008 0 0.888672V0.833984H3.28125V0.888672C3.22656 1.08008 3.17188 1.31706 3.11719 1.59961C3.07161 1.88216 3.0306 2.23763 2.99414 2.66602C2.9668 3.08529 2.93945 3.58659 2.91211 4.16992C2.89388 4.74414 2.88477 5.41862 2.88477 6.19336V9.24219L10.8691 2.7207C11.7624 1.99154 12.209 1.36263 12.209 0.833984H16.0508V0.888672C15.513 1.01628 14.9661 1.26237 14.4102 1.62695C13.8633 1.98242 13.2799 2.41992 12.6602 2.93945L5.60547 8.8457L14.0957 18.1699C14.4512 18.5345 14.752 18.8398 14.998 19.0859C15.2533 19.3229 15.4766 19.5234 15.668 19.6875C15.8594 19.8424 16.0326 19.9746 16.1875 20.084C16.3516 20.1842 16.5202 20.2845 16.6934 20.3848V20.4395H12.6875C12.651 20.3574 12.5872 20.2526 12.4961 20.125C12.4141 19.9974 12.3138 19.8652 12.1953 19.7285C12.0859 19.5918 11.9629 19.4505 11.8262 19.3047C11.6986 19.1589 11.5755 19.0221 11.457 18.8945L2.88477 9.48828V15.0938C2.88477 15.8685 2.89388 16.5475 2.91211 17.1309C2.93945 17.7051 2.9668 18.2018 2.99414 18.6211C3.0306 19.0404 3.07161 19.3913 3.11719 19.6738C3.17188 19.9564 3.22656 20.1934 3.28125 20.3848V20.4395H0V20.3848ZM21.974 11.7852C21.974 11.0104 21.9603 10.3359 21.933 9.76172C21.9147 9.17839 21.8874 8.67708 21.8509 8.25781C21.8236 7.83854 21.7826 7.48763 21.7279 7.20508C21.6823 6.92253 21.6322 6.68555 21.5775 6.49414V6.43945H24.7357V6.49414C24.681 6.68555 24.6309 6.92253 24.5853 7.20508C24.5397 7.48763 24.4987 7.83854 24.4623 8.25781C24.4258 8.67708 24.3985 9.17839 24.3802 9.76172C24.362 10.3359 24.3529 11.0104 24.3529 11.7852V15.0938C24.3529 15.8685 24.362 16.5475 24.3802 17.1309C24.3985 17.7051 24.4258 18.2018 24.4623 18.6211C24.4987 19.0404 24.5397 19.3913 24.5853 19.6738C24.6309 19.9564 24.681 20.1934 24.7357 20.3848V20.4395H21.5775V20.3848C21.6322 20.1934 21.6823 19.9564 21.7279 19.6738C21.7826 19.3913 21.8236 19.0404 21.8509 18.6211C21.8874 18.2018 21.9147 17.7051 21.933 17.1309C21.9603 16.5475 21.974 15.8685 21.974 15.0938V11.7852ZM21.6869 2.29688C21.6869 2.09635 21.7233 1.90951 21.7962 1.73633C21.8783 1.55404 21.9831 1.39909 22.1107 1.27148C22.2383 1.13477 22.3887 1.02995 22.5619 0.957031C22.7442 0.875 22.9401 0.833984 23.1498 0.833984C23.3594 0.833984 23.5508 0.875 23.724 0.957031C23.9063 1.02995 24.0612 1.13477 24.1888 1.27148C24.3255 1.39909 24.4304 1.55404 24.5033 1.73633C24.5853 1.90951 24.6263 2.09635 24.6263 2.29688C24.6263 2.71615 24.4851 3.06706 24.2025 3.34961C23.9199 3.63216 23.569 3.77344 23.1498 3.77344C22.9401 3.77344 22.7442 3.73698 22.5619 3.66406C22.3887 3.58203 22.2383 3.47721 22.1107 3.34961C21.9831 3.21289 21.8783 3.05794 21.7962 2.88477C21.7233 2.70247 21.6869 2.50651 21.6869 2.29688ZM32.3679 5.3457C32.3679 4.57096 32.3542 3.89648 32.3269 3.32227C32.3086 2.73893 32.2813 2.23763 32.2448 1.81836C32.2175 1.39909 32.1765 1.04818 32.1218 0.765625C32.0762 0.483073 32.0261 0.246094 31.9714 0.0546875V0H35.1296V0.0546875C35.0749 0.246094 35.0248 0.483073 34.9792 0.765625C34.9336 1.04818 34.8926 1.39909 34.8562 1.81836C34.8197 2.23763 34.7924 2.73893 34.7741 3.32227C34.7559 3.89648 34.7468 4.57096 34.7468 5.3457V15.0938C34.7468 15.8685 34.7559 16.5475 34.7741 17.1309C34.7924 17.7051 34.8197 18.2018 34.8562 18.6211C34.8926 19.0404 34.9336 19.3913 34.9792 19.6738C35.0248 19.9564 35.0749 20.1934 35.1296 20.3848V20.4395H31.9714V20.3848C32.0261 20.1934 32.0762 19.9564 32.1218 19.6738C32.1765 19.3913 32.2175 19.0404 32.2448 18.6211C32.2813 18.2018 32.3086 17.7051 32.3269 17.1309C32.3542 16.5475 32.3679 15.8685 32.3679 15.0938V5.3457ZM54.0411 17.5273L53.0294 19.9609C52.7833 20.0703 52.5007 20.1706 52.1817 20.2617C51.8627 20.3529 51.53 20.4303 51.1837 20.4941C50.8464 20.5579 50.5046 20.6035 50.1583 20.6309C49.8119 20.6673 49.4838 20.6855 49.1739 20.6855C48.071 20.6855 47.0502 20.526 46.1114 20.207C45.1817 19.8789 44.3751 19.4049 43.6915 18.7852C43.017 18.1654 42.4884 17.4043 42.1055 16.502C41.7227 15.5996 41.5313 14.5697 41.5313 13.4121C41.5313 12.3822 41.7273 11.4297 42.1192 10.5547C42.5203 9.67057 43.0717 8.90495 43.7735 8.25781C44.4845 7.61068 45.3184 7.10482 46.2755 6.74023C47.2325 6.37565 48.2716 6.19336 49.3927 6.19336C49.9031 6.19336 50.4499 6.23893 51.0333 6.33008C51.6166 6.41211 52.1361 6.52148 52.5919 6.6582L53.5626 8.98242L53.3985 9.07812C53.1707 8.79557 52.8972 8.54036 52.5782 8.3125C52.2683 8.07552 51.922 7.875 51.5391 7.71094C51.1654 7.54688 50.769 7.41927 50.3497 7.32812C49.9304 7.23698 49.502 7.19141 49.0645 7.19141C48.3536 7.19141 47.7065 7.31901 47.1231 7.57422C46.5398 7.82031 46.0385 8.18034 45.6192 8.6543C45.1999 9.12826 44.8718 9.71159 44.6348 10.4043C44.407 11.0879 44.293 11.8672 44.293 12.7422C44.293 13.7266 44.4024 14.6426 44.6212 15.4902C44.849 16.3379 45.1817 17.0762 45.6192 17.7051C46.0658 18.3249 46.6218 18.8125 47.2872 19.168C47.9617 19.5143 48.7501 19.6875 49.6524 19.6875C50.0717 19.6875 50.4864 19.6374 50.8966 19.5371C51.3158 19.4277 51.7078 19.2773 52.0723 19.0859C52.446 18.8854 52.7878 18.6484 53.0977 18.375C53.4076 18.1016 53.6674 17.7917 53.877 17.4453L54.0411 17.5273ZM69.8627 11.2246C69.8627 10.0215 69.6212 9.13737 69.1381 8.57227C68.6551 8.00716 68.0079 7.72461 67.1967 7.72461C66.8959 7.72461 66.5587 7.78841 66.185 7.91602C65.8204 8.03451 65.4422 8.19857 65.0502 8.4082C64.6674 8.61784 64.2846 8.86393 63.9018 9.14648C63.519 9.41992 63.1635 9.71159 62.8354 10.0215V15.0938C62.8354 15.8685 62.8445 16.5475 62.8627 17.1309C62.881 17.7051 62.9083 18.2018 62.9448 18.6211C62.9812 19.0404 63.0222 19.3913 63.0678 19.6738C63.1134 19.9564 63.1635 20.1934 63.2182 20.3848V20.4395H60.06V20.3848C60.1147 20.1934 60.1648 19.9564 60.2104 19.6738C60.2651 19.3913 60.3061 19.0404 60.3334 18.6211C60.3699 18.2018 60.3972 17.7051 60.4155 17.1309C60.4428 16.5475 60.4565 15.8685 60.4565 15.0938V5.3457C60.4565 4.57096 60.4428 3.89648 60.4155 3.32227C60.3972 2.73893 60.3699 2.23763 60.3334 1.81836C60.3061 1.39909 60.2651 1.04818 60.2104 0.765625C60.1648 0.483073 60.1147 0.246094 60.06 0.0546875V0H63.2182V0.0546875C63.1635 0.246094 63.1134 0.483073 63.0678 0.765625C63.0222 1.04818 62.9812 1.39909 62.9448 1.81836C62.9083 2.23763 62.881 2.73893 62.8627 3.32227C62.8445 3.89648 62.8354 4.57096 62.8354 5.3457V8.8457C63.2 8.51758 63.601 8.19401 64.0385 7.875C64.4851 7.55599 64.9454 7.26888 65.4194 7.01367C65.8933 6.75846 66.3764 6.55339 66.8686 6.39844C67.3608 6.24349 67.8439 6.16602 68.3178 6.16602C69.0288 6.16602 69.6303 6.28906 70.1225 6.53516C70.6238 6.78125 71.0294 7.10482 71.3393 7.50586C71.6583 7.9069 71.8862 8.36719 72.0229 8.88672C72.1687 9.39714 72.2416 9.91667 72.2416 10.4453V15.0938C72.2416 15.8685 72.2508 16.5475 72.269 17.1309C72.2872 17.7051 72.3146 18.2018 72.351 18.6211C72.3875 19.0404 72.4285 19.3913 72.4741 19.6738C72.5196 19.9564 72.5698 20.1934 72.6245 20.3848V20.4395H69.4663V20.3848C69.5209 20.1934 69.5711 19.9564 69.6166 19.6738C69.6713 19.3913 69.7123 19.0404 69.7397 18.6211C69.7761 18.2018 69.8035 17.7051 69.8217 17.1309C69.8491 16.5475 69.8627 15.8685 69.8627 15.0938V11.2246ZM82.3895 7.13672C82.9637 6.82682 83.5789 6.5944 84.2352 6.43945C84.8914 6.27539 85.5613 6.19336 86.2449 6.19336C87.2566 6.19336 88.1909 6.36654 89.0477 6.71289C89.9135 7.05013 90.6609 7.5332 91.2898 8.16211C91.9187 8.79102 92.4109 9.55664 92.7664 10.459C93.1219 11.3613 93.2996 12.373 93.2996 13.4941C93.2996 14.4329 93.1355 15.3353 92.8074 16.2012C92.4884 17.0671 92.0053 17.8327 91.3582 18.498C90.7202 19.1634 89.9227 19.6966 88.9656 20.0977C88.0177 20.4896 86.9148 20.6855 85.657 20.6855C85.5112 20.6855 85.3152 20.681 85.0691 20.6719C84.8322 20.6628 84.5678 20.6445 84.2762 20.6172C83.9845 20.5898 83.6746 20.5534 83.3465 20.5078C83.0184 20.4622 82.6993 20.403 82.3895 20.3301C81.952 20.2298 81.5099 20.1204 81.0633 20.002C80.6258 19.8743 80.2065 19.7331 79.8055 19.5781C79.8419 19.4414 79.8738 19.2135 79.9012 18.8945C79.9285 18.5664 79.9467 18.2155 79.9559 17.8418C79.9741 17.4681 79.9878 17.1035 79.9969 16.748C80.006 16.3835 80.0105 16.0918 80.0105 15.873V5.3457C80.0105 4.57096 79.9969 3.89648 79.9695 3.32227C79.9513 2.73893 79.924 2.23763 79.8875 1.81836C79.8602 1.39909 79.8191 1.04818 79.7645 0.765625C79.7189 0.483073 79.6687 0.246094 79.6141 0.0546875V0H82.7723V0.0546875C82.7176 0.246094 82.6674 0.483073 82.6219 0.765625C82.5763 1.04818 82.5353 1.39909 82.4988 1.81836C82.4624 2.23763 82.435 2.73893 82.4168 3.32227C82.3986 3.89648 82.3895 4.57096 82.3895 5.3457V7.13672ZM82.3895 15.6543C82.3895 16.3926 82.394 17.0033 82.4031 17.4863C82.4214 17.9694 82.4441 18.3568 82.4715 18.6484C82.8543 18.9401 83.3738 19.1862 84.0301 19.3867C84.6863 19.5872 85.4064 19.6875 86.1902 19.6875C86.8374 19.6875 87.4298 19.5599 87.9676 19.3047C88.5053 19.0495 88.9656 18.6803 89.3484 18.1973C89.7312 17.7142 90.0275 17.1263 90.2371 16.4336C90.4559 15.7409 90.5652 14.957 90.5652 14.082C90.5652 13.0977 90.4741 12.1862 90.2918 11.3477C90.1095 10.5 89.827 9.77083 89.4441 9.16016C89.0613 8.54036 88.5737 8.05729 87.9812 7.71094C87.3888 7.36458 86.6824 7.19141 85.8621 7.19141C85.1694 7.19141 84.5223 7.33268 83.9207 7.61523C83.3191 7.89779 82.8087 8.30794 82.3895 8.8457V15.6543ZM106.127 20.6855C105.115 20.6855 104.167 20.526 103.283 20.207C102.399 19.888 101.629 19.4232 100.973 18.8125C100.317 18.1927 99.797 17.4316 99.4142 16.5293C99.0405 15.6178 98.8537 14.5788 98.8537 13.4121C98.8537 12.3822 99.0269 11.4297 99.3732 10.5547C99.7196 9.67057 100.198 8.90495 100.809 8.25781C101.419 7.61068 102.13 7.10482 102.942 6.74023C103.762 6.37565 104.646 6.19336 105.594 6.19336C106.533 6.19336 107.403 6.35742 108.205 6.68555C109.007 7.00456 109.7 7.47396 110.283 8.09375C110.876 8.70443 111.341 9.46549 111.678 10.377C112.024 11.2793 112.211 12.3092 112.238 13.4668C111.208 13.4486 110.179 13.4349 109.149 13.4258C108.119 13.4167 107.048 13.4121 105.936 13.4121C105.143 13.4121 104.368 13.4167 103.611 13.4258C102.864 13.4349 102.19 13.4486 101.588 13.4668C101.643 14.4147 101.789 15.2715 102.026 16.0371C102.272 16.8027 102.604 17.459 103.024 18.0059C103.452 18.5436 103.967 18.9583 104.569 19.25C105.179 19.5417 105.867 19.6875 106.633 19.6875C107.162 19.6875 107.658 19.6283 108.123 19.5098C108.597 19.3822 109.026 19.209 109.408 18.9902C109.791 18.7715 110.133 18.5163 110.434 18.2246C110.735 17.9238 110.99 17.6003 111.199 17.2539L111.363 17.3359L110.352 19.7695C109.86 20.0247 109.272 20.2435 108.588 20.4258C107.904 20.599 107.084 20.6855 106.127 20.6855ZM104.309 12.3457C105.22 12.3457 106.132 12.3457 107.043 12.3457C107.964 12.3366 108.798 12.3184 109.545 12.291C109.463 11.498 109.308 10.7871 109.08 10.1582C108.852 9.5293 108.561 8.99609 108.205 8.55859C107.85 8.12109 107.43 7.78385 106.947 7.54688C106.464 7.3099 105.931 7.19141 105.348 7.19141C104.819 7.19141 104.332 7.3099 103.885 7.54688C103.447 7.77474 103.065 8.10742 102.736 8.54492C102.408 8.98242 102.144 9.52018 101.944 10.1582C101.743 10.7871 101.625 11.5072 101.588 12.3184C101.998 12.3366 102.431 12.3457 102.887 12.3457C103.343 12.3457 103.817 12.3457 104.309 12.3457ZM118.818 11.7852C118.818 11.0104 118.804 10.3359 118.777 9.76172C118.759 9.17839 118.731 8.67708 118.695 8.25781C118.668 7.83854 118.626 7.48763 118.572 7.20508C118.526 6.92253 118.476 6.68555 118.421 6.49414V6.43945H121.58V6.49414C121.507 6.70378 121.443 6.95898 121.388 7.25977C121.343 7.56055 121.306 7.94792 121.279 8.42188C121.616 8.13932 121.967 7.86133 122.332 7.58789C122.696 7.31445 123.07 7.07292 123.453 6.86328C123.835 6.65365 124.223 6.48503 124.615 6.35742C125.016 6.22982 125.417 6.16602 125.818 6.16602C126.064 6.16602 126.278 6.17969 126.46 6.20703C126.643 6.22526 126.807 6.25716 126.953 6.30273C127.098 6.33919 127.231 6.38477 127.349 6.43945C127.468 6.48503 127.582 6.5306 127.691 6.57617L127.021 9.1875L126.789 9.13281C126.679 8.73177 126.474 8.41276 126.173 8.17578C125.873 7.92969 125.462 7.80664 124.943 7.80664C124.66 7.80664 124.364 7.85677 124.054 7.95703C123.744 8.05729 123.43 8.19857 123.111 8.38086C122.792 8.55404 122.473 8.75911 122.154 8.99609C121.835 9.22396 121.525 9.46549 121.224 9.7207C121.206 9.98503 121.197 10.2721 121.197 10.582C121.197 10.8919 121.197 11.2201 121.197 11.5664V15.0938C121.197 15.8685 121.206 16.5475 121.224 17.1309C121.242 17.7051 121.27 18.2018 121.306 18.6211C121.343 19.0404 121.384 19.3913 121.429 19.6738C121.475 19.9564 121.525 20.1934 121.58 20.3848V20.4395H118.421V20.3848C118.476 20.1934 118.526 19.9564 118.572 19.6738C118.626 19.3913 118.668 19.0404 118.695 18.6211C118.731 18.2018 118.759 17.7051 118.777 17.1309C118.804 16.5475 118.818 15.8685 118.818 15.0938V11.7852ZM138.741 26.6875C139.479 26.6875 140.104 26.6055 140.614 26.4414C141.125 26.2865 141.544 26.0677 141.872 25.7852C142.209 25.5026 142.464 25.1608 142.638 24.7598C142.82 24.3678 142.952 23.9349 143.034 23.4609C143.125 22.987 143.175 22.4811 143.184 21.9434C143.203 21.4056 143.212 20.8496 143.212 20.2754V19.8242C142.765 20.0612 142.227 20.2663 141.599 20.4395C140.97 20.6035 140.259 20.6855 139.466 20.6855C138.381 20.6855 137.397 20.5169 136.513 20.1797C135.628 19.8424 134.872 19.3594 134.243 18.7305C133.623 18.1016 133.145 17.3405 132.807 16.4473C132.47 15.5449 132.302 14.5332 132.302 13.4121C132.302 12.3822 132.466 11.4251 132.794 10.541C133.131 9.6569 133.6 8.89128 134.202 8.24414C134.813 7.59701 135.537 7.09115 136.376 6.72656C137.224 6.35286 138.158 6.16602 139.179 6.16602C139.616 6.16602 140.017 6.20247 140.382 6.27539C140.746 6.34831 141.084 6.44857 141.393 6.57617C141.712 6.69466 142.009 6.83594 142.282 7C142.565 7.15495 142.838 7.32357 143.102 7.50586L142.966 6.49414V6.43945H145.987V6.49414C145.932 6.68555 145.878 6.92253 145.823 7.20508C145.778 7.48763 145.737 7.83854 145.7 8.25781C145.673 8.67708 145.645 9.17839 145.618 9.76172C145.6 10.3359 145.591 11.0104 145.591 11.7852V21.082C145.591 21.9206 145.477 22.7363 145.249 23.5293C145.03 24.3314 144.652 25.0423 144.114 25.6621C143.585 26.2819 142.884 26.7786 142.009 27.1523C141.134 27.526 140.044 27.7129 138.741 27.7129C138.285 27.7129 137.825 27.6673 137.36 27.5762C136.895 27.4941 136.453 27.3893 136.034 27.2617C135.615 27.1432 135.237 27.0111 134.899 26.8652C134.562 26.7194 134.293 26.5918 134.093 26.4824L133.669 23.8574L133.888 23.8027C134.106 24.2767 134.403 24.6914 134.776 25.0469C135.159 25.4115 135.574 25.7122 136.02 25.9492C136.467 26.1953 136.927 26.3776 137.401 26.4961C137.884 26.6237 138.331 26.6875 138.741 26.6875ZM140.081 19.6875C140.737 19.6875 141.33 19.5781 141.858 19.3594C142.396 19.1406 142.847 18.8854 143.212 18.5938V11.7852C143.212 11.2747 143.207 10.8145 143.198 10.4043C143.189 9.98503 143.184 9.60677 143.184 9.26953C142.966 8.93229 142.71 8.63607 142.419 8.38086C142.136 8.11654 141.831 7.89779 141.503 7.72461C141.184 7.54232 140.856 7.4056 140.518 7.31445C140.181 7.21419 139.849 7.16406 139.52 7.16406C138.828 7.16406 138.203 7.29167 137.647 7.54688C137.091 7.80208 136.617 8.17122 136.225 8.6543C135.843 9.12826 135.546 9.71159 135.337 10.4043C135.136 11.0879 135.036 11.8672 135.036 12.7422C135.036 13.7266 135.145 14.6426 135.364 15.4902C135.583 16.3379 135.902 17.0762 136.321 17.7051C136.75 18.3249 137.278 18.8125 137.907 19.168C138.536 19.5143 139.261 19.6875 140.081 19.6875ZM164.492 14.1914V12.2363H173.734V14.1914H164.492ZM201.754 11.2246C201.754 10.623 201.69 10.1035 201.563 9.66602C201.444 9.22852 201.267 8.86849 201.03 8.58594C200.802 8.29427 200.524 8.08008 200.196 7.94336C199.868 7.79753 199.503 7.72461 199.102 7.72461C198.828 7.72461 198.523 7.7793 198.186 7.88867C197.849 7.99805 197.498 8.14844 197.133 8.33984C196.778 8.52214 196.418 8.73633 196.053 8.98242C195.698 9.22852 195.36 9.49284 195.041 9.77539C195.023 10.0671 195.014 10.3815 195.014 10.7188C195.014 11.0469 195.014 11.4023 195.014 11.7852V15.0938C195.014 15.8685 195.023 16.5475 195.041 17.1309C195.06 17.7051 195.087 18.2018 195.123 18.6211C195.16 19.0404 195.201 19.3913 195.246 19.6738C195.292 19.9564 195.342 20.1934 195.397 20.3848V20.4395H192.239V20.3848C192.293 20.1934 192.343 19.9564 192.389 19.6738C192.444 19.3913 192.485 19.0404 192.512 18.6211C192.548 18.2018 192.576 17.7051 192.594 17.1309C192.621 16.5475 192.635 15.8685 192.635 15.0938V11.7852C192.635 11.0104 192.621 10.3359 192.594 9.76172C192.576 9.17839 192.548 8.67708 192.512 8.25781C192.485 7.83854 192.444 7.48763 192.389 7.20508C192.343 6.92253 192.293 6.68555 192.239 6.49414V6.43945H195.397V6.49414C195.324 6.70378 195.265 6.97266 195.219 7.30078C195.183 7.61979 195.142 8.02539 195.096 8.51758C195.461 8.22591 195.853 7.9388 196.272 7.65625C196.691 7.3737 197.119 7.12305 197.557 6.9043C198.004 6.68555 198.45 6.50781 198.897 6.37109C199.343 6.23438 199.785 6.16602 200.223 6.16602C200.743 6.16602 201.203 6.23438 201.604 6.37109C202.005 6.50781 202.356 6.69466 202.657 6.93164C202.957 7.16862 203.208 7.44661 203.409 7.76562C203.618 8.08464 203.778 8.42643 203.887 8.79102C204.261 8.47201 204.666 8.15755 205.104 7.84766C205.55 7.52865 206.006 7.24609 206.471 7C206.945 6.75391 207.423 6.55339 207.907 6.39844C208.399 6.24349 208.877 6.16602 209.342 6.16602C210.053 6.16602 210.655 6.28906 211.147 6.53516C211.648 6.78125 212.054 7.10482 212.364 7.50586C212.683 7.9069 212.91 8.36719 213.047 8.88672C213.193 9.39714 213.266 9.91667 213.266 10.4453V15.0938C213.266 15.8685 213.275 16.5475 213.293 17.1309C213.312 17.7051 213.339 18.2018 213.375 18.6211C213.412 19.0404 213.453 19.3913 213.498 19.6738C213.553 19.9564 213.608 20.1934 213.662 20.3848V20.4395H210.491V20.3848C210.545 20.1934 210.595 19.9564 210.641 19.6738C210.696 19.3913 210.741 19.0404 210.778 18.6211C210.814 18.2018 210.841 17.7051 210.86 17.1309C210.878 16.5475 210.887 15.8685 210.887 15.0938V11.2246C210.887 10.0215 210.646 9.13737 210.162 8.57227C209.679 8.00716 209.032 7.72461 208.221 7.72461C207.938 7.72461 207.624 7.7793 207.278 7.88867C206.94 7.99805 206.59 8.14844 206.225 8.33984C205.86 8.53125 205.496 8.75456 205.131 9.00977C204.767 9.25586 204.425 9.52018 204.106 9.80273C204.124 9.91211 204.133 10.0215 204.133 10.1309C204.133 10.2402 204.133 10.3451 204.133 10.4453V15.0938C204.133 15.8685 204.142 16.5475 204.16 17.1309C204.188 17.7051 204.215 18.2018 204.243 18.6211C204.279 19.0404 204.32 19.3913 204.366 19.6738C204.42 19.9564 204.475 20.1934 204.53 20.3848V20.4395H201.371V20.3848C201.426 20.1934 201.476 19.9564 201.522 19.6738C201.567 19.3913 201.608 19.0404 201.645 18.6211C201.681 18.2018 201.709 17.7051 201.727 17.1309C201.745 16.5475 201.754 15.8685 201.754 15.0938V11.2246ZM223.318 15.6543C223.318 16.8574 223.555 17.7415 224.029 18.3066C224.512 18.8717 225.159 19.1543 225.97 19.1543C226.262 19.1543 226.59 19.0951 226.955 18.9766C227.319 18.849 227.693 18.6849 228.076 18.4844C228.468 18.2747 228.855 18.0332 229.238 17.7598C229.63 17.4863 229.99 17.1947 230.318 16.8848C230.336 16.6204 230.345 16.3424 230.345 16.0508C230.345 15.75 230.345 15.431 230.345 15.0938V11.7852C230.345 11.0104 230.332 10.3359 230.304 9.76172C230.286 9.17839 230.259 8.67708 230.222 8.25781C230.195 7.83854 230.154 7.48763 230.099 7.20508C230.054 6.92253 230.004 6.68555 229.949 6.49414V6.43945H233.107V6.49414C233.052 6.68555 233.002 6.92253 232.957 7.20508C232.911 7.48763 232.87 7.83854 232.834 8.25781C232.797 8.67708 232.77 9.17839 232.752 9.76172C232.733 10.3359 232.724 11.0104 232.724 11.7852V15.0938C232.724 15.8685 232.733 16.5475 232.752 17.1309C232.77 17.7051 232.797 18.2018 232.834 18.6211C232.87 19.0404 232.911 19.3913 232.957 19.6738C233.002 19.9564 233.052 20.1934 233.107 20.3848V20.4395H229.949V20.3848C230.004 20.1569 230.058 19.8652 230.113 19.5098C230.177 19.1543 230.222 18.6895 230.25 18.1152C229.876 18.4342 229.47 18.7487 229.033 19.0586C228.605 19.3685 228.153 19.6465 227.679 19.8926C227.215 20.1387 226.741 20.3346 226.258 20.4805C225.784 20.6354 225.314 20.7129 224.849 20.7129C224.138 20.7129 223.532 20.5898 223.031 20.3438C222.539 20.0977 222.133 19.7741 221.814 19.373C221.504 18.972 221.276 18.5163 221.131 18.0059C220.994 17.4954 220.925 16.9714 220.925 16.4336V11.7852C220.925 11.0104 220.916 10.3359 220.898 9.76172C220.88 9.17839 220.853 8.67708 220.816 8.25781C220.78 7.83854 220.739 7.48763 220.693 7.20508C220.647 6.92253 220.597 6.68555 220.543 6.49414V6.43945H223.701V6.49414C223.646 6.68555 223.596 6.92253 223.55 7.20508C223.505 7.48763 223.464 7.83854 223.427 8.25781C223.391 8.67708 223.364 9.17839 223.345 9.76172C223.327 10.3359 223.318 11.0104 223.318 11.7852V15.6543ZM246.755 9.1875L246.564 9.21484C246.5 9.00521 246.395 8.7819 246.249 8.54492C246.112 8.30794 245.93 8.08919 245.702 7.88867C245.483 7.68815 245.215 7.52409 244.896 7.39648C244.586 7.25977 244.226 7.19141 243.815 7.19141C243.533 7.19141 243.264 7.23242 243.009 7.31445C242.763 7.39648 242.544 7.51953 242.353 7.68359C242.17 7.83854 242.024 8.03451 241.915 8.27148C241.806 8.50846 241.751 8.78646 241.751 9.10547C241.751 9.55208 241.888 9.98047 242.161 10.3906C242.444 10.7917 242.795 11.1927 243.214 11.5938C243.633 11.9857 244.084 12.3822 244.567 12.7832C245.06 13.1842 245.515 13.6035 245.935 14.041C246.354 14.4785 246.7 14.9479 246.974 15.4492C247.256 15.9414 247.398 16.4746 247.398 17.0488C247.398 17.5137 247.315 17.9694 247.151 18.416C246.987 18.8535 246.732 19.2454 246.386 19.5918C246.049 19.9382 245.611 20.2207 245.073 20.4395C244.545 20.6491 243.911 20.7539 243.173 20.7539C242.735 20.7539 242.325 20.7129 241.942 20.6309C241.569 20.5488 241.222 20.4486 240.903 20.3301C240.593 20.2025 240.311 20.0658 240.056 19.9199C239.81 19.765 239.591 19.6191 239.399 19.4824L239.536 16.8848H239.755C239.846 17.3132 239.983 17.7051 240.165 18.0605C240.347 18.416 240.571 18.7214 240.835 18.9766C241.108 19.2227 241.418 19.4186 241.765 19.5645C242.111 19.7012 242.489 19.7695 242.899 19.7695C243.574 19.7695 244.107 19.5827 244.499 19.209C244.9 18.8353 245.101 18.3477 245.101 17.7461C245.101 17.263 244.964 16.821 244.69 16.4199C244.426 16.0098 244.089 15.6178 243.679 15.2441C243.269 14.8704 242.827 14.4967 242.353 14.123C241.888 13.7493 241.45 13.3529 241.04 12.9336C240.63 12.5052 240.288 12.0404 240.015 11.5391C239.75 11.0286 239.618 10.4499 239.618 9.80273C239.618 9.27409 239.714 8.79102 239.905 8.35352C240.106 7.9069 240.379 7.52865 240.726 7.21875C241.081 6.89974 241.5 6.65365 241.983 6.48047C242.467 6.30729 242.995 6.2207 243.569 6.2207C244.326 6.2207 244.955 6.30273 245.456 6.4668C245.967 6.62174 246.354 6.77214 246.618 6.91797L246.755 9.1875ZM260.266 20.6855C259.254 20.6855 258.306 20.526 257.422 20.207C256.538 19.888 255.768 19.4232 255.112 18.8125C254.455 18.1927 253.936 17.4316 253.553 16.5293C253.179 15.6178 252.993 14.5788 252.993 13.4121C252.993 12.3822 253.166 11.4297 253.512 10.5547C253.858 9.67057 254.337 8.90495 254.948 8.25781C255.558 7.61068 256.269 7.10482 257.08 6.74023C257.901 6.37565 258.785 6.19336 259.733 6.19336C260.672 6.19336 261.542 6.35742 262.344 6.68555C263.146 7.00456 263.839 7.47396 264.422 8.09375C265.015 8.70443 265.48 9.46549 265.817 10.377C266.163 11.2793 266.35 12.3092 266.377 13.4668C265.347 13.4486 264.317 13.4349 263.288 13.4258C262.258 13.4167 261.187 13.4121 260.075 13.4121C259.282 13.4121 258.507 13.4167 257.75 13.4258C257.003 13.4349 256.329 13.4486 255.727 13.4668C255.782 14.4147 255.927 15.2715 256.164 16.0371C256.411 16.8027 256.743 17.459 257.163 18.0059C257.591 18.5436 258.106 18.9583 258.707 19.25C259.318 19.5417 260.006 19.6875 260.772 19.6875C261.301 19.6875 261.797 19.6283 262.262 19.5098C262.736 19.3822 263.164 19.209 263.547 18.9902C263.93 18.7715 264.272 18.5163 264.573 18.2246C264.873 17.9238 265.129 17.6003 265.338 17.2539L265.502 17.3359L264.491 19.7695C263.998 20.0247 263.411 20.2435 262.727 20.4258C262.043 20.599 261.223 20.6855 260.266 20.6855ZM258.448 12.3457C259.359 12.3457 260.271 12.3457 261.182 12.3457C262.103 12.3366 262.937 12.3184 263.684 12.291C263.602 11.498 263.447 10.7871 263.219 10.1582C262.991 9.5293 262.7 8.99609 262.344 8.55859C261.989 8.12109 261.569 7.78385 261.086 7.54688C260.603 7.3099 260.07 7.19141 259.487 7.19141C258.958 7.19141 258.47 7.3099 258.024 7.54688C257.586 7.77474 257.204 8.10742 256.875 8.54492C256.547 8.98242 256.283 9.52018 256.082 10.1582C255.882 10.7871 255.763 11.5072 255.727 12.3184C256.137 12.3366 256.57 12.3457 257.026 12.3457C257.482 12.3457 257.955 12.3457 258.448 12.3457ZM275.254 15.6543C275.254 16.8574 275.491 17.7415 275.965 18.3066C276.448 18.8717 277.095 19.1543 277.906 19.1543C278.198 19.1543 278.526 19.0951 278.89 18.9766C279.255 18.849 279.629 18.6849 280.011 18.4844C280.403 18.2747 280.791 18.0332 281.174 17.7598C281.566 17.4863 281.926 17.1947 282.254 16.8848C282.272 16.6204 282.281 16.3424 282.281 16.0508C282.281 15.75 282.281 15.431 282.281 15.0938V11.7852C282.281 11.0104 282.267 10.3359 282.24 9.76172C282.222 9.17839 282.194 8.67708 282.158 8.25781C282.131 7.83854 282.09 7.48763 282.035 7.20508C281.989 6.92253 281.939 6.68555 281.885 6.49414V6.43945H285.043V6.49414C284.988 6.68555 284.938 6.92253 284.892 7.20508C284.847 7.48763 284.806 7.83854 284.769 8.25781C284.733 8.67708 284.705 9.17839 284.687 9.76172C284.669 10.3359 284.66 11.0104 284.66 11.7852V15.0938C284.66 15.8685 284.669 16.5475 284.687 17.1309C284.705 17.7051 284.733 18.2018 284.769 18.6211C284.806 19.0404 284.847 19.3913 284.892 19.6738C284.938 19.9564 284.988 20.1934 285.043 20.3848V20.4395H281.885V20.3848C281.939 20.1569 281.994 19.8652 282.049 19.5098C282.112 19.1543 282.158 18.6895 282.185 18.1152C281.812 18.4342 281.406 18.7487 280.969 19.0586C280.54 19.3685 280.089 19.6465 279.615 19.8926C279.15 20.1387 278.676 20.3346 278.193 20.4805C277.719 20.6354 277.25 20.7129 276.785 20.7129C276.074 20.7129 275.468 20.5898 274.967 20.3438C274.474 20.0977 274.069 19.7741 273.75 19.373C273.44 18.972 273.212 18.5163 273.066 18.0059C272.929 17.4954 272.861 16.9714 272.861 16.4336V11.7852C272.861 11.0104 272.852 10.3359 272.834 9.76172C272.816 9.17839 272.788 8.67708 272.752 8.25781C272.715 7.83854 272.674 7.48763 272.629 7.20508C272.583 6.92253 272.533 6.68555 272.478 6.49414V6.43945H275.636V6.49414C275.582 6.68555 275.532 6.92253 275.486 7.20508C275.441 7.48763 275.399 7.83854 275.363 8.25781C275.327 8.67708 275.299 9.17839 275.281 9.76172C275.263 10.3359 275.254 11.0104 275.254 11.7852V15.6543ZM301.63 11.2246C301.63 10.623 301.566 10.1035 301.439 9.66602C301.32 9.22852 301.142 8.86849 300.905 8.58594C300.678 8.29427 300.4 8.08008 300.071 7.94336C299.743 7.79753 299.379 7.72461 298.978 7.72461C298.704 7.72461 298.399 7.7793 298.062 7.88867C297.724 7.99805 297.373 8.14844 297.009 8.33984C296.653 8.52214 296.293 8.73633 295.929 8.98242C295.573 9.22852 295.236 9.49284 294.917 9.77539C294.899 10.0671 294.89 10.3815 294.89 10.7188C294.89 11.0469 294.89 11.4023 294.89 11.7852V15.0938C294.89 15.8685 294.899 16.5475 294.917 17.1309C294.935 17.7051 294.963 18.2018 294.999 18.6211C295.036 19.0404 295.077 19.3913 295.122 19.6738C295.168 19.9564 295.218 20.1934 295.273 20.3848V20.4395H292.114V20.3848C292.169 20.1934 292.219 19.9564 292.265 19.6738C292.319 19.3913 292.36 19.0404 292.388 18.6211C292.424 18.2018 292.452 17.7051 292.47 17.1309C292.497 16.5475 292.511 15.8685 292.511 15.0938V11.7852C292.511 11.0104 292.497 10.3359 292.47 9.76172C292.452 9.17839 292.424 8.67708 292.388 8.25781C292.36 7.83854 292.319 7.48763 292.265 7.20508C292.219 6.92253 292.169 6.68555 292.114 6.49414V6.43945H295.273V6.49414C295.2 6.70378 295.14 6.97266 295.095 7.30078C295.058 7.61979 295.017 8.02539 294.972 8.51758C295.336 8.22591 295.728 7.9388 296.148 7.65625C296.567 7.3737 296.995 7.12305 297.433 6.9043C297.879 6.68555 298.326 6.50781 298.773 6.37109C299.219 6.23438 299.661 6.16602 300.099 6.16602C300.618 6.16602 301.079 6.23438 301.48 6.37109C301.881 6.50781 302.232 6.69466 302.532 6.93164C302.833 7.16862 303.084 7.44661 303.284 7.76562C303.494 8.08464 303.653 8.42643 303.763 8.79102C304.137 8.47201 304.542 8.15755 304.98 7.84766C305.426 7.52865 305.882 7.24609 306.347 7C306.821 6.75391 307.299 6.55339 307.782 6.39844C308.275 6.24349 308.753 6.16602 309.218 6.16602C309.929 6.16602 310.53 6.28906 311.023 6.53516C311.524 6.78125 311.929 7.10482 312.239 7.50586C312.558 7.9069 312.786 8.36719 312.923 8.88672C313.069 9.39714 313.142 9.91667 313.142 10.4453V15.0938C313.142 15.8685 313.151 16.5475 313.169 17.1309C313.187 17.7051 313.215 18.2018 313.251 18.6211C313.288 19.0404 313.329 19.3913 313.374 19.6738C313.429 19.9564 313.484 20.1934 313.538 20.3848V20.4395H310.366V20.3848C310.421 20.1934 310.471 19.9564 310.517 19.6738C310.571 19.3913 310.617 19.0404 310.653 18.6211C310.69 18.2018 310.717 17.7051 310.735 17.1309C310.754 16.5475 310.763 15.8685 310.763 15.0938V11.2246C310.763 10.0215 310.521 9.13737 310.038 8.57227C309.555 8.00716 308.908 7.72461 308.097 7.72461C307.814 7.72461 307.5 7.7793 307.153 7.88867C306.816 7.99805 306.465 8.14844 306.101 8.33984C305.736 8.53125 305.372 8.75456 305.007 9.00977C304.642 9.25586 304.301 9.52018 303.982 9.80273C304 9.91211 304.009 10.0215 304.009 10.1309C304.009 10.2402 304.009 10.3451 304.009 10.4453V15.0938C304.009 15.8685 304.018 16.5475 304.036 17.1309C304.064 17.7051 304.091 18.2018 304.118 18.6211C304.155 19.0404 304.196 19.3913 304.241 19.6738C304.296 19.9564 304.351 20.1934 304.405 20.3848V20.4395H301.247V20.3848C301.302 20.1934 301.352 19.9564 301.398 19.6738C301.443 19.3913 301.484 19.0404 301.521 18.6211C301.557 18.2018 301.584 17.7051 301.603 17.1309C301.621 16.5475 301.63 15.8685 301.63 15.0938V11.2246Z" fill="black"/>
</svg>
