<svg width="102" height="16" viewBox="0 0 102 16" fill="none" xmlns="http://www.w3.org/2000/svg">
<path d="M12.7001 10.8198C12.7001 10.9132 12.6935 11.0132 12.6801 11.1198C12.6668 11.2132 12.6468 11.3132 12.6201 11.4198C12.5268 12.0065 12.4468 12.6065 12.3801 13.2198C12.3268 13.8198 12.2468 14.4132 12.1401 14.9998C12.1401 15.0665 12.1135 15.1265 12.0601 15.1798C11.9668 15.2598 11.8535 15.2998 11.7201 15.2998C11.0668 15.2998 10.4135 15.2932 9.76012 15.2798C9.10678 15.2665 8.44678 15.2598 7.78012 15.2598C6.96678 15.2598 6.15345 15.2598 5.34012 15.2598C4.54012 15.2598 3.73345 15.2732 2.92012 15.2998C2.46678 15.3132 2.02012 15.3265 1.58012 15.3398C1.14012 15.3665 0.693451 15.3798 0.240117 15.3798C0.0801172 15.3798 0.000117213 15.2865 0.000117213 15.0998C0.000117213 14.9132 0.0934505 14.8198 0.280117 14.8198C0.413451 14.8198 0.540117 14.8265 0.660117 14.8398C0.793451 14.8398 0.920117 14.8398 1.04012 14.8398C1.22678 14.8398 1.41345 14.8065 1.60012 14.7398C1.80012 14.6598 1.90012 14.5132 1.90012 14.2998V2.47984C1.90012 2.21318 1.89345 1.99318 1.88012 1.81984C1.86678 1.63318 1.80012 1.49318 1.68012 1.39984C1.57345 1.30651 1.36678 1.25984 1.06012 1.25984C0.926784 1.25984 0.800117 1.26651 0.680117 1.27984C0.560117 1.29318 0.433451 1.29984 0.300117 1.29984C0.193451 1.29984 0.126784 1.27318 0.100117 1.21984C0.0734505 1.15318 0.0601172 1.07318 0.0601172 0.979843C0.0601172 0.899843 0.0667839 0.833176 0.0801172 0.779843C0.106784 0.713176 0.166784 0.679843 0.260117 0.679843C0.700117 0.679843 1.13345 0.68651 1.56012 0.699843C2.00012 0.713177 2.44012 0.719844 2.88012 0.719844C3.38678 0.719844 3.90012 0.713177 4.42012 0.699843C4.94012 0.68651 5.45345 0.679843 5.96012 0.679843C6.05345 0.679843 6.10678 0.713176 6.12012 0.779843C6.14678 0.833176 6.16012 0.893176 6.16012 0.959843C6.16012 1.01318 6.14678 1.07984 6.12012 1.15984C6.10678 1.22651 6.05345 1.25984 5.96012 1.25984C5.78678 1.25984 5.61345 1.25984 5.44012 1.25984C5.28012 1.24651 5.11345 1.23984 4.94012 1.23984C4.72678 1.23984 4.51345 1.26651 4.30012 1.31984C4.08678 1.37318 3.98012 1.53984 3.98012 1.81984C3.98012 2.28651 3.97345 2.75318 3.96012 3.21984C3.96012 3.68651 3.96012 4.15318 3.96012 4.61984V10.5198C3.96012 11.1065 3.96012 11.6998 3.96012 12.2998C3.97345 12.8998 3.98012 13.4932 3.98012 14.0798C3.98012 14.3065 4.07345 14.4732 4.26012 14.5798C4.44678 14.6732 4.66012 14.7265 4.90012 14.7398C5.14012 14.7532 5.34012 14.7598 5.50012 14.7598C6.08678 14.7598 6.67345 14.7465 7.26012 14.7198C7.84678 14.6932 8.42678 14.6332 9.00012 14.5398C9.37345 14.4732 9.72678 14.3465 10.0601 14.1598C10.4068 13.9598 10.7068 13.7132 10.9601 13.4198C11.2935 13.0332 11.5468 12.6198 11.7201 12.1798C11.8935 11.7265 12.0668 11.2732 12.2401 10.8198C12.2801 10.7265 12.3268 10.6732 12.3801 10.6598C12.4335 10.6465 12.5001 10.6398 12.5801 10.6398C12.6201 10.6398 12.6468 10.6665 12.6601 10.7198C12.6868 10.7598 12.7001 10.7932 12.7001 10.8198ZM21.9586 15.0398C21.9586 15.1065 21.9386 15.1732 21.8986 15.2398C21.8586 15.2932 21.8052 15.3198 21.7386 15.3198C21.3652 15.3198 20.9919 15.3132 20.6186 15.2998C20.2586 15.2732 19.8852 15.2598 19.4986 15.2598H18.9586C18.5586 15.2598 18.1586 15.2732 17.7586 15.2998C17.3719 15.3132 16.9852 15.3198 16.5986 15.3198C16.5452 15.3198 16.5052 15.2865 16.4786 15.2198C16.4652 15.1532 16.4586 15.0998 16.4586 15.0598C16.4586 14.9932 16.4652 14.9465 16.4786 14.9198C16.4919 14.8798 16.5319 14.8532 16.5986 14.8398C16.6652 14.8132 16.7386 14.8065 16.8186 14.8198C16.9119 14.8198 16.9986 14.8198 17.0786 14.8198C17.1719 14.8198 17.2586 14.8265 17.3386 14.8398C17.4186 14.8398 17.5052 14.8398 17.5986 14.8398C17.7852 14.8398 17.9519 14.7998 18.0986 14.7198C18.2586 14.6265 18.3386 14.4732 18.3386 14.2598V6.25984C18.3386 6.03318 18.2986 5.85984 18.2186 5.73984C18.1386 5.60651 17.9719 5.53984 17.7186 5.53984C17.5319 5.53984 17.3386 5.55318 17.1386 5.57984C16.9519 5.59318 16.7652 5.61318 16.5786 5.63984C16.4719 5.63984 16.4186 5.57984 16.4186 5.45984C16.4186 5.32651 16.4719 5.23984 16.5786 5.19984C16.7386 5.14651 16.9052 5.11318 17.0786 5.09984C17.2652 5.07318 17.4386 5.04651 17.5986 5.01984C17.9719 4.95318 18.3452 4.87984 18.7186 4.79984C19.0919 4.71984 19.4586 4.63318 19.8186 4.53984C19.8586 4.52651 19.9119 4.51984 19.9786 4.51984C20.1252 4.51984 20.1986 4.59984 20.1986 4.75984C20.1986 6.33318 20.1919 7.91318 20.1786 9.49984C20.1786 11.0865 20.1786 12.6732 20.1786 14.2598C20.1786 14.4732 20.2719 14.6265 20.4586 14.7198C20.6586 14.7998 20.8452 14.8398 21.0186 14.8398C21.1519 14.8398 21.2852 14.8332 21.4186 14.8198C21.5652 14.8065 21.7052 14.7998 21.8386 14.7998C21.8919 14.7998 21.9252 14.8332 21.9386 14.8998C21.9519 14.9665 21.9586 15.0132 21.9586 15.0398ZM20.3386 1.19984C20.3386 1.53318 20.2186 1.81984 19.9786 2.05984C19.7386 2.28651 19.4519 2.39984 19.1186 2.39984C18.7852 2.39984 18.4986 2.28651 18.2586 2.05984C18.0186 1.81984 17.8986 1.53318 17.8986 1.19984C17.8986 0.86651 18.0186 0.58651 18.2586 0.359843C18.4986 0.119843 18.7852 -0.000156641 19.1186 -0.000156641C19.4519 -0.000156641 19.7386 0.119843 19.9786 0.359843C20.2186 0.58651 20.3386 0.86651 20.3386 1.19984ZM36.7736 4.77984C36.7736 4.93984 36.6802 5.01984 36.4936 5.01984C36.4536 5.01984 36.4136 5.01984 36.3736 5.01984C36.3336 5.00651 36.2936 4.99984 36.2536 4.99984C36.0936 4.99984 35.9536 5.02651 35.8336 5.07984C35.7136 5.11984 35.6202 5.21318 35.5536 5.35984C35.4736 5.53318 35.4002 5.71318 35.3336 5.89984C35.2802 6.07318 35.2202 6.25318 35.1536 6.43984C35.0202 6.81318 34.8869 7.18651 34.7536 7.55984C34.6202 7.91984 34.4869 8.28651 34.3536 8.65984C33.9669 9.77984 33.5669 10.8998 33.1536 12.0198C32.7536 13.1398 32.3402 14.2598 31.9136 15.3798L30.0936 15.4198C29.8002 14.5265 29.4936 13.6398 29.1736 12.7598C28.8536 11.8665 28.5336 10.9732 28.2136 10.0798C27.9869 9.42651 27.7602 8.77318 27.5336 8.11984C27.3202 7.46651 27.0802 6.81984 26.8136 6.17984C26.6536 5.79318 26.4669 5.55984 26.2536 5.47984C26.0402 5.38651 25.7402 5.33984 25.3536 5.33984C25.2202 5.33984 25.1536 5.27318 25.1536 5.13984C25.1536 5.00651 25.2069 4.93318 25.3136 4.91984C25.3136 4.91984 25.4402 4.90651 25.6936 4.87984C25.9602 4.83984 26.2669 4.79318 26.6136 4.73984C26.9736 4.68651 27.2869 4.64651 27.5536 4.61984C27.8336 4.57984 27.9802 4.55984 27.9936 4.55984C28.0869 4.55984 28.1536 4.57984 28.1936 4.61984C28.2336 4.65984 28.2736 4.71984 28.3136 4.79984C28.3802 4.93318 28.4269 5.07984 28.4536 5.23984C28.4936 5.38651 28.5402 5.53318 28.5936 5.67984C28.7136 6.05318 28.8269 6.43318 28.9336 6.81984C29.0536 7.20651 29.1802 7.59318 29.3136 7.97984C29.6736 9.07318 30.0336 10.1598 30.3936 11.2398C30.7669 12.3198 31.1336 13.3998 31.4936 14.4798C31.5736 14.2665 31.7002 13.9132 31.8736 13.4198C32.0469 12.9265 32.2469 12.3598 32.4736 11.7198C32.7002 11.0798 32.9269 10.4198 33.1536 9.73984C33.3936 9.04651 33.6136 8.39318 33.8136 7.77984C34.0136 7.15318 34.1736 6.61984 34.2936 6.17984C34.4136 5.72651 34.4736 5.42651 34.4736 5.27984C34.4736 5.13318 34.4136 5.05318 34.2936 5.03984C34.1869 5.01318 34.0802 4.99984 33.9736 4.99984C33.8402 4.99984 33.7069 5.00651 33.5736 5.01984C33.4536 5.01984 33.3202 5.01984 33.1736 5.01984C33.0536 5.01984 32.9936 4.95318 32.9936 4.81984C32.9936 4.75318 33.0202 4.70651 33.0736 4.67984C33.1269 4.63984 33.1802 4.61318 33.2336 4.59984C33.3002 4.59984 33.3669 4.59984 33.4336 4.59984C33.5002 4.59984 33.5602 4.59984 33.6136 4.59984H35.1336C35.3736 4.59984 35.6136 4.59318 35.8536 4.57984C36.0936 4.56651 36.3336 4.55984 36.5736 4.55984C36.7069 4.55984 36.7736 4.63318 36.7736 4.77984ZM47.3379 8.31984C47.3246 7.77318 47.2779 7.25318 47.1979 6.75984C47.1179 6.25318 46.9246 5.83984 46.6179 5.51984C46.3113 5.18651 45.8113 5.01984 45.1179 5.01984C44.4913 5.01984 43.9779 5.19318 43.5779 5.53984C43.1913 5.87318 42.8913 6.29984 42.6779 6.81984C42.4646 7.32651 42.3046 7.84651 42.1979 8.37984C42.5313 8.39318 42.8579 8.40651 43.1779 8.41984C43.4979 8.41984 43.8179 8.41984 44.1379 8.41984C44.6713 8.41984 45.2046 8.41318 45.7379 8.39984C46.2713 8.37318 46.8046 8.34651 47.3379 8.31984ZM49.6379 12.8998C49.6379 12.9665 49.6246 13.0065 49.5979 13.0198C49.5579 13.1532 49.4579 13.3132 49.2979 13.4998C49.1513 13.6865 48.9846 13.8665 48.7979 14.0398C48.6113 14.1998 48.4579 14.3198 48.3379 14.3998C47.8979 14.7065 47.3979 14.9532 46.8379 15.1398C46.2913 15.3265 45.7446 15.4198 45.1979 15.4198C44.7446 15.4198 44.2379 15.3465 43.6779 15.1998C43.1313 15.0532 42.6646 14.8532 42.2779 14.5998C41.5313 14.1065 40.9846 13.4598 40.6379 12.6598C40.2913 11.8598 40.1179 11.0265 40.1179 10.1598C40.1179 9.17318 40.3113 8.25984 40.6979 7.41984C41.0846 6.57984 41.7046 5.89984 42.5579 5.37984C42.9446 5.15318 43.3779 4.96651 43.8579 4.81984C44.3379 4.65984 44.7979 4.57984 45.2379 4.57984C46.0246 4.57984 46.7179 4.73984 47.3179 5.05984C47.9179 5.37984 48.3846 5.83318 48.7179 6.41984C49.0646 6.99318 49.2379 7.67984 49.2379 8.47984C49.2379 8.70651 49.1846 8.85318 49.0779 8.91984C48.9846 8.98651 48.8379 9.01984 48.6379 9.01984C48.3713 9.01984 48.1046 9.01318 47.8379 8.99984C47.5713 8.98651 47.3046 8.97318 47.0379 8.95984C46.6646 8.93318 46.2913 8.91984 45.9179 8.91984C45.5579 8.91984 45.1913 8.91984 44.8179 8.91984C44.3646 8.91984 43.9113 8.91984 43.4579 8.91984C43.0046 8.91984 42.5513 8.93318 42.0979 8.95984C42.0846 9.17318 42.0713 9.37984 42.0579 9.57984C42.0446 9.77984 42.0379 9.98651 42.0379 10.1998C42.0379 10.6932 42.0979 11.2065 42.2179 11.7398C42.3379 12.2598 42.5313 12.7465 42.7979 13.1998C43.0646 13.6398 43.4046 13.9998 43.8179 14.2798C44.2313 14.5465 44.7313 14.6798 45.3179 14.6798C45.9179 14.6798 46.4913 14.5865 47.0379 14.3998C47.5846 14.2132 48.0846 13.9132 48.5379 13.4998C48.6579 13.3798 48.7646 13.2532 48.8579 13.1198C48.9646 12.9732 49.0779 12.8465 49.1979 12.7398C49.2646 12.6732 49.3379 12.6398 49.4179 12.6398C49.4846 12.6398 49.5379 12.6665 49.5779 12.7198C49.6179 12.7732 49.6379 12.8332 49.6379 12.8998ZM66.7564 11.5998C66.7564 11.6798 66.7497 11.7598 66.7364 11.8398C66.723 11.9198 66.6964 11.9932 66.6564 12.0598C66.483 12.4732 66.2097 12.8798 65.8364 13.2798C65.4764 13.6665 65.103 13.9865 64.7164 14.2398C64.1164 14.6398 63.4764 14.9198 62.7964 15.0798C62.1297 15.2398 61.443 15.3198 60.7364 15.3198C59.3097 15.3198 58.0764 15.0198 57.0364 14.4198C56.0097 13.8065 55.223 12.9598 54.6764 11.8798C54.1297 10.7998 53.8564 9.55984 53.8564 8.15984C53.8564 7.11984 54.0097 6.14651 54.3164 5.23984C54.623 4.33318 55.0697 3.53984 55.6564 2.85984C56.243 2.16651 56.963 1.62651 57.8164 1.23984C58.6697 0.839843 59.643 0.639843 60.7364 0.639843C61.2697 0.639843 61.7764 0.72651 62.2564 0.899843C62.7497 1.05984 63.243 1.22651 63.7364 1.39984C64.0164 1.49318 64.303 1.56651 64.5964 1.61984C64.903 1.67318 65.203 1.71318 65.4964 1.73984C65.5097 2.03318 65.5297 2.32651 65.5564 2.61984C65.583 2.89984 65.6164 3.18651 65.6564 3.47984C65.6964 3.74651 65.743 4.01984 65.7964 4.29984C65.863 4.56651 65.8964 4.83984 65.8964 5.11984C65.8964 5.33318 65.8497 5.50651 65.7564 5.63984C65.6764 5.77318 65.5164 5.83984 65.2764 5.83984C65.143 5.83984 65.043 5.76651 64.9764 5.61984C64.923 5.48651 64.8764 5.34651 64.8364 5.19984C64.8097 5.03984 64.7764 4.89318 64.7364 4.75984C64.6297 4.31984 64.4497 3.85984 64.1964 3.37984C63.943 2.88651 63.6364 2.49318 63.2764 2.19984C63.1164 2.05318 62.8764 1.90651 62.5564 1.75984C62.2497 1.61318 61.9297 1.49318 61.5964 1.39984C61.2764 1.30651 61.003 1.25984 60.7764 1.25984C60.3764 1.25984 59.9697 1.33318 59.5564 1.47984C59.143 1.62651 58.7764 1.81984 58.4564 2.05984C57.8564 2.52651 57.3764 3.09318 57.0164 3.75984C56.6564 4.41318 56.3964 5.11318 56.2364 5.85984C56.0897 6.60651 56.0164 7.34651 56.0164 8.07984C56.0164 8.87984 56.1097 9.66651 56.2964 10.4398C56.483 11.1998 56.7764 11.8865 57.1764 12.4998C57.5764 13.1132 58.0964 13.6065 58.7364 13.9798C59.3764 14.3398 60.1564 14.5198 61.0764 14.5198C61.463 14.5198 61.8964 14.4665 62.3764 14.3598C62.8564 14.2398 63.2697 14.1065 63.6164 13.9598C64.0297 13.7865 64.4097 13.5665 64.7564 13.2998C65.103 13.0198 65.4164 12.7065 65.6964 12.3598C65.723 12.3332 65.7764 12.2532 65.8564 12.1198C65.9497 11.9865 66.043 11.8532 66.1364 11.7198C66.2297 11.5865 66.2897 11.5065 66.3164 11.4798C66.383 11.3998 66.4564 11.3598 66.5364 11.3598C66.683 11.3598 66.7564 11.4398 66.7564 11.5998ZM77.0086 12.9998C76.9552 12.3998 76.9219 11.7998 76.9086 11.1998C76.9086 10.5865 76.9019 9.97318 76.8886 9.35984H76.6086C76.1952 9.35984 75.7352 9.42651 75.2286 9.55984C74.7352 9.67984 74.2619 9.86651 73.8086 10.1198C73.3552 10.3732 72.9819 10.6932 72.6886 11.0798C72.4086 11.4532 72.2686 11.8865 72.2686 12.3798C72.2686 13.0198 72.4486 13.5065 72.8086 13.8398C73.1686 14.1598 73.6552 14.3198 74.2686 14.3198C74.5619 14.3198 74.8819 14.2532 75.2286 14.1198C75.5752 13.9732 75.9086 13.7998 76.2286 13.5998C76.5486 13.3998 76.8086 13.1998 77.0086 12.9998ZM80.5086 14.2798C80.5086 14.3332 80.5019 14.3732 80.4886 14.3998C80.3552 14.6932 80.1286 14.9198 79.8086 15.0798C79.5019 15.2265 79.1952 15.2998 78.8886 15.2998C78.3286 15.2998 77.9219 15.1398 77.6686 14.8198C77.4286 14.4865 77.2352 14.0798 77.0886 13.5998C76.5819 14.0665 76.0219 14.4598 75.4086 14.7798C74.7952 15.0865 74.1352 15.2398 73.4286 15.2398C72.9352 15.2398 72.4686 15.1465 72.0286 14.9598C71.6019 14.7598 71.2552 14.4732 70.9886 14.0998C70.7219 13.7265 70.5886 13.2732 70.5886 12.7398C70.5886 12.1798 70.7286 11.6998 71.0086 11.2998C71.3019 10.8865 71.6686 10.5398 72.1086 10.2598C72.5619 9.96651 73.0419 9.73318 73.5486 9.55984C74.0686 9.37318 74.5552 9.23318 75.0086 9.13984C75.3152 9.07318 75.6286 9.01318 75.9486 8.95984C76.2686 8.90651 76.5819 8.85318 76.8886 8.79984C76.8886 8.42651 76.8686 7.99318 76.8286 7.49984C76.8019 7.00651 76.7019 6.59984 76.5286 6.27984C76.3552 5.97318 76.1219 5.69984 75.8286 5.45984C75.5352 5.21984 75.2086 5.09984 74.8486 5.09984C74.2352 5.09984 73.7552 5.25984 73.4086 5.57984C73.0619 5.89984 72.8152 6.35318 72.6686 6.93984C72.6552 7.00651 72.6419 7.07984 72.6286 7.15984C72.6286 7.22651 72.6219 7.29318 72.6086 7.35984C72.5952 7.43984 72.5419 7.51318 72.4486 7.57984C72.3686 7.63318 72.2819 7.65984 72.1886 7.65984C71.9352 7.65984 71.7019 7.59984 71.4886 7.47984C71.2886 7.35984 71.1886 7.15984 71.1886 6.87984C71.1886 6.71984 71.2152 6.57984 71.2686 6.45984C71.4419 6.04651 71.7219 5.70651 72.1086 5.43984C72.4952 5.15984 72.9219 4.94651 73.3886 4.79984C73.8686 4.65318 74.3152 4.57984 74.7286 4.57984C75.4486 4.57984 76.1019 4.71318 76.6886 4.97984C77.2752 5.24651 77.7419 5.63984 78.0886 6.15984C78.4486 6.66651 78.6286 7.30651 78.6286 8.07984C78.6286 8.94651 78.6219 9.81984 78.6086 10.6998C78.6086 11.5798 78.6352 12.4598 78.6886 13.3398C78.7019 13.6332 78.7619 13.8932 78.8686 14.1198C78.9752 14.3332 79.1952 14.4398 79.5286 14.4398C79.7019 14.4398 79.8819 14.3998 80.0686 14.3198C80.2686 14.2265 80.3952 14.1798 80.4486 14.1798C80.4886 14.1798 80.5086 14.2132 80.5086 14.2798ZM101.467 15.0798C101.467 15.2665 101.394 15.3598 101.247 15.3598C100.874 15.3598 100.494 15.3465 100.107 15.3198C99.7208 15.2932 99.3341 15.2798 98.9475 15.2798C98.5608 15.2798 98.1675 15.2932 97.7675 15.3198C97.3808 15.3465 96.9941 15.3598 96.6075 15.3598C96.5541 15.3598 96.5141 15.3265 96.4875 15.2598C96.4741 15.1932 96.4675 15.1398 96.4675 15.0998C96.4675 14.9798 96.5275 14.9065 96.6475 14.8798C96.7808 14.8532 96.9208 14.8465 97.0675 14.8598C97.2275 14.8732 97.3475 14.8798 97.4275 14.8798C97.6141 14.8798 97.7675 14.8332 97.8875 14.7398C98.0075 14.6465 98.0675 14.5065 98.0675 14.3198C98.0675 13.4265 98.0741 12.5398 98.0875 11.6598C98.1141 10.7798 98.1275 9.89984 98.1275 9.01984C98.1275 8.87318 98.1275 8.72651 98.1275 8.57984C98.1275 8.43318 98.1208 8.28651 98.1075 8.13984C98.0941 7.81984 98.0741 7.49318 98.0475 7.15984C98.0341 6.81318 97.9808 6.49318 97.8875 6.19984C97.7941 5.89318 97.6341 5.64651 97.4075 5.45984C97.1808 5.27318 96.8541 5.17984 96.4275 5.17984C96.1208 5.17984 95.7808 5.27318 95.4075 5.45984C95.0475 5.63318 94.7008 5.83984 94.3675 6.07984C94.0341 6.31984 93.7541 6.54651 93.5275 6.75984C93.5541 6.94651 93.5675 7.13984 93.5675 7.33984C93.5675 7.52651 93.5675 7.71318 93.5675 7.89984C93.5675 8.28651 93.5675 8.67984 93.5675 9.07984C93.5808 9.46651 93.5875 9.85318 93.5875 10.2398C93.5875 10.9198 93.5808 11.5998 93.5675 12.2798C93.5675 12.9598 93.5675 13.6398 93.5675 14.3198C93.5675 14.5198 93.6541 14.6598 93.8275 14.7398C94.0008 14.8198 94.1741 14.8598 94.3475 14.8598C94.4541 14.8598 94.5608 14.8532 94.6675 14.8398C94.7875 14.8265 94.8941 14.8198 94.9875 14.8198C95.0541 14.8198 95.0941 14.8532 95.1075 14.9198C95.1341 14.9865 95.1475 15.0398 95.1475 15.0798C95.1475 15.1465 95.1275 15.2132 95.0875 15.2798C95.0475 15.3332 94.9875 15.3598 94.9075 15.3598C94.5341 15.3598 94.1541 15.3465 93.7675 15.3198C93.3941 15.2932 93.0141 15.2798 92.6275 15.2798C92.2541 15.2798 91.8741 15.2932 91.4875 15.3198C91.1008 15.3465 90.7141 15.3598 90.3275 15.3598C90.2741 15.3598 90.2341 15.3265 90.2075 15.2598C90.1808 15.1932 90.1675 15.1398 90.1675 15.0998C90.1675 14.9932 90.2208 14.9198 90.3275 14.8798C90.4341 14.8532 90.5608 14.8465 90.7075 14.8598C90.8675 14.8732 91.0008 14.8798 91.1075 14.8798C91.2941 14.8798 91.4475 14.8398 91.5675 14.7598C91.7008 14.6665 91.7675 14.5198 91.7675 14.3198V9.21984C91.7675 8.93984 91.7608 8.59318 91.7475 8.17984C91.7475 7.76651 91.7208 7.35984 91.6675 6.95984C91.6275 6.54651 91.5541 6.21984 91.4475 5.97984C91.3541 5.73984 91.1941 5.55318 90.9675 5.41984C90.7541 5.28651 90.5141 5.21984 90.2475 5.21984C89.9008 5.21984 89.5475 5.30651 89.1875 5.47984C88.8275 5.65318 88.4875 5.86651 88.1675 6.11984C87.8475 6.37318 87.5741 6.62651 87.3475 6.87984V14.2998C87.3475 14.4998 87.4208 14.6465 87.5675 14.7398C87.7141 14.8198 87.8741 14.8598 88.0475 14.8598C88.1541 14.8598 88.2608 14.8532 88.3675 14.8398C88.4741 14.8132 88.5741 14.7998 88.6675 14.7998C88.7208 14.7998 88.7541 14.8398 88.7675 14.9198C88.7808 14.9865 88.7875 15.0332 88.7875 15.0598C88.7875 15.1265 88.7675 15.1932 88.7275 15.2598C88.7008 15.3132 88.6475 15.3398 88.5675 15.3398C88.3141 15.3398 88.0608 15.3332 87.8075 15.3198C87.5541 15.2932 87.3008 15.2798 87.0475 15.2798C86.5408 15.2798 86.0341 15.2932 85.5275 15.3198C85.0208 15.3332 84.5141 15.3398 84.0075 15.3398C83.9541 15.3398 83.9141 15.3065 83.8875 15.2398C83.8608 15.1732 83.8475 15.1198 83.8475 15.0798C83.8475 14.9198 83.9141 14.8398 84.0475 14.8398C84.1941 14.8398 84.3341 14.8465 84.4675 14.8598C84.6008 14.8598 84.7341 14.8598 84.8675 14.8598C85.0541 14.8598 85.2141 14.8198 85.3475 14.7398C85.4808 14.6465 85.5475 14.4998 85.5475 14.2998C85.5475 12.9532 85.5408 11.6065 85.5275 10.2598C85.5275 8.89984 85.5275 7.54651 85.5275 6.19984C85.5275 6.05318 85.5141 5.90651 85.4875 5.75984C85.4608 5.61318 85.3741 5.51318 85.2275 5.45984C85.1341 5.41984 85.0341 5.39984 84.9275 5.39984C84.7541 5.39984 84.5808 5.42651 84.4075 5.47984C84.2341 5.51984 84.0541 5.53984 83.8675 5.53984C83.7475 5.53984 83.6875 5.45984 83.6875 5.29984C83.6875 5.19318 83.7275 5.12651 83.8075 5.09984C83.8741 5.07318 83.9475 5.05984 84.0275 5.05984C84.1208 5.04651 84.2075 5.03318 84.2875 5.01984C84.5941 4.97984 84.9008 4.93318 85.2075 4.87984C85.5275 4.81318 85.8341 4.74651 86.1275 4.67984C86.2341 4.65318 86.3475 4.62651 86.4675 4.59984C86.5875 4.57318 86.7075 4.55984 86.8275 4.55984C86.9875 4.55984 87.0941 4.67984 87.1475 4.91984C87.2141 5.14651 87.2475 5.39318 87.2475 5.65984C87.2608 5.92651 87.2675 6.11984 87.2675 6.23984C87.5475 5.99984 87.8608 5.75318 88.2075 5.49984C88.5541 5.23318 88.9208 5.00651 89.3075 4.81984C89.6941 4.63318 90.0808 4.53984 90.4675 4.53984C91.1475 4.53984 91.7208 4.65318 92.1875 4.87984C92.6541 5.10651 93.0541 5.53318 93.3875 6.15984C93.6808 5.90651 94.0141 5.65318 94.3875 5.39984C94.7608 5.13318 95.1475 4.91318 95.5475 4.73984C95.9608 4.55318 96.3675 4.45984 96.7675 4.45984C97.6475 4.45984 98.3141 4.58651 98.7675 4.83984C99.2341 5.09318 99.5475 5.48651 99.7075 6.01984C99.8808 6.53984 99.9675 7.21318 99.9675 8.03984C99.9675 9.07984 99.9608 10.1265 99.9475 11.1798C99.9341 12.2198 99.9275 13.2665 99.9275 14.3198C99.9275 14.5198 100.014 14.6598 100.187 14.7398C100.374 14.8198 100.554 14.8598 100.727 14.8598C100.834 14.8598 100.934 14.8532 101.027 14.8398C101.134 14.8265 101.234 14.8198 101.327 14.8198C101.381 14.8198 101.414 14.8532 101.427 14.9198C101.454 14.9865 101.467 15.0398 101.467 15.0798Z" fill="black"/>
</svg>
